<?xml version="1.0" encoding="utf-8"?>
<!-- Generator: Adobe Illustrator 16.0.0, SVG Export Plug-In . SVG Version: 6.00 Build 0)  -->
<!DOCTYPE svg PUBLIC "-//W3C//DTD SVG 1.1//EN" "http://www.w3.org/Graphics/SVG/1.1/DTD/svg11.dtd">
<svg version="1.1" id="Vrstva_1" xmlns="http://www.w3.org/2000/svg" xmlns:xlink="http://www.w3.org/1999/xlink" x="0px" y="0px"
	 width="34.02px" height="34.02px" viewBox="0 0 34.02 34.02" enable-background="new 0 0 34.02 34.02" xml:space="preserve">
<g>
	<path d="M15.347,21.418c-3.93,0-7.126-3.197-7.126-7.125c0-3.929,3.196-7.125,7.126-7.125c3.929,0,7.125,3.196,7.125,7.125
		C22.472,18.221,19.275,21.418,15.347,21.418z M15.347,8.367c-3.268,0-5.926,2.658-5.926,5.926s2.658,5.926,5.926,5.926
		c3.267,0,5.925-2.659,5.925-5.926S18.613,8.367,15.347,8.367z"/>
	<rect x="14.746" y="20.818" width="1.2" height="10.432"/>
	<rect x="10.067" y="25.537" width="10.682" height="1.201"/>
	<rect x="21.521" y="2.239" transform="matrix(0.7075 0.7067 -0.7067 0.7075 11.0192 -13.7502)" width="1.201" height="8.396"/>
	<polygon points="25.796,8.432 24.597,8.432 24.597,3.961 20.126,3.961 20.126,2.761 25.796,2.761 	"/>
	<rect x="12.271" y="12.33" width="6.484" height="1.2"/>
	<rect x="12.271" y="15.055" width="6.484" height="1.2"/>
</g>
</svg>
