<?xml version="1.0" encoding="utf-8"?>
<!-- Generator: Adobe Illustrator 16.0.0, SVG Export Plug-In . SVG Version: 6.00 Build 0)  -->
<!DOCTYPE svg PUBLIC "-//W3C//DTD SVG 1.1//EN" "http://www.w3.org/Graphics/SVG/1.1/DTD/svg11.dtd">
<svg version="1.1" id="Vrstva_1" xmlns="http://www.w3.org/2000/svg" xmlns:xlink="http://www.w3.org/1999/xlink" x="0px" y="0px"
	 width="34.02px" height="34.02px" viewBox="0 0 34.02 34.02" enable-background="new 0 0 34.02 34.02" xml:space="preserve">
<g>
	<path d="M17.008,31.781c-8.146,0-14.774-6.627-14.774-14.772c0-8.147,6.627-14.774,14.774-14.774
		c8.146,0,14.773,6.627,14.773,14.774C31.782,25.154,25.154,31.781,17.008,31.781z M17.008,3.434
		c-7.484,0-13.574,6.09-13.574,13.575c0,7.484,6.089,13.572,13.574,13.572c7.485,0,13.574-6.088,13.574-13.572
		C30.582,9.524,24.493,3.434,17.008,3.434z"/>
	<path d="M17.008,31.781c-2.37,0-4.572-1.582-6.2-4.455c-1.566-2.766-2.43-6.43-2.43-10.317c0-3.889,0.863-7.553,2.43-10.319
		c1.628-2.873,3.83-4.456,6.2-4.456c2.371,0,4.572,1.583,6.2,4.456c1.567,2.766,2.43,6.43,2.43,10.319
		c0,3.888-0.862,7.552-2.43,10.317C21.58,30.199,19.379,31.781,17.008,31.781z M17.008,3.434c-4.097,0-7.43,6.09-7.43,13.575
		c0,7.484,3.333,13.572,7.43,13.572c4.097,0,7.429-6.088,7.429-13.572C24.438,9.524,21.105,3.434,17.008,3.434z"/>
	<path d="M10.643,11.434c-2.079-0.57-3.923-1.43-5.334-2.484l0.718-0.961c1.293,0.966,2.998,1.758,4.934,2.289L10.643,11.434z"/>
	<path d="M23.475,11.387l-0.328-1.154c1.902-0.54,3.575-1.333,4.839-2.294l0.727,0.955C27.33,9.945,25.52,10.807,23.475,11.387z"/>
	<path d="M27.935,26.146c-2.197-1.642-5.535-2.734-9.157-2.998l0.087-1.197c3.901,0.285,7.378,1.434,9.788,3.234L27.935,26.146z"/>
	<path d="M6.08,26.125l-0.715-0.964c2.423-1.797,6.057-2.973,9.969-3.225l0.078,1.197C11.723,23.372,8.322,24.462,6.08,26.125z"/>
	<rect x="23.661" y="16.976" width="7.46" height="1.2"/>
	<rect x="2.896" y="16.976" width="7.525" height="1.2"/>
	<rect x="16.408" y="24.104" width="1.2" height="7.26"/>
	<path fill="none" stroke="#000000" stroke-width="1.2" stroke-miterlimit="10" d="M17.008,24.104"/>
	<rect x="16.408" y="2.834" width="1.2" height="8.304"/>
	<path d="M17.06,25.052L9.959,17.95c-0.967-0.967-1.499-2.252-1.499-3.619c0-1.367,0.532-2.652,1.499-3.619s2.252-1.499,3.619-1.499
		c1.304,0,2.532,0.484,3.481,1.367c0.949-0.883,2.179-1.367,3.483-1.367c1.367,0,2.652,0.532,3.619,1.499s1.499,2.252,1.499,3.619
		c0,1.367-0.532,2.652-1.499,3.619L17.06,25.052z M13.579,10.414c-1.047,0-2.03,0.407-2.771,1.147s-1.147,1.724-1.147,2.771
		c0,1.046,0.407,2.031,1.147,2.77l6.252,6.253l6.253-6.252c0.74-0.74,1.147-1.725,1.147-2.771c0-1.047-0.407-2.03-1.147-2.771
		s-1.724-1.147-2.771-1.147c-1.046,0-2.03,0.407-2.771,1.147l-0.712,0.711l-0.711-0.711C15.609,10.821,14.625,10.414,13.579,10.414z
		"/>
</g>
</svg>
