<?xml version="1.0" encoding="utf-8"?>
<!-- Generator: Adobe Illustrator 16.0.0, SVG Export Plug-In . SVG Version: 6.00 Build 0)  -->
<!DOCTYPE svg PUBLIC "-//W3C//DTD SVG 1.1//EN" "http://www.w3.org/Graphics/SVG/1.1/DTD/svg11.dtd">
<svg version="1.1" id="Vrstva_1" xmlns="http://www.w3.org/2000/svg" xmlns:xlink="http://www.w3.org/1999/xlink" x="0px" y="0px"
	 width="34.016px" height="34.02px" viewBox="0 0 34.016 34.02" enable-background="new 0 0 34.016 34.02" xml:space="preserve">
<g>
	<path fill="#1A171B" d="M17.007,27.357l-0.036-0.002c-1.79-0.099-10.721-1.003-10.721-9.234c0-8.08,8.648-14.594,10.381-15.817
		l0.375-0.264l0.375,0.264c1.734,1.223,10.383,7.733,10.383,15.817c0,8.231-8.932,9.136-10.722,9.234L17.007,27.357z M17.007,3.638
		c-1.965,1.46-9.457,7.484-9.457,14.483c0,7.008,7.792,7.838,9.457,7.934c1.664-0.096,9.458-0.925,9.458-7.934
		C26.465,11.119,18.973,5.097,17.007,3.638z"/>
	<rect x="16.358" y="26.702" fill="#1A171B" width="1.3" height="4.479"/>
	<polygon fill="#1A171B" points="22.486,25.688 21.186,25.688 21.186,11.364 12.83,11.364 12.83,25.688 11.53,25.688 11.53,10.064 
		22.486,10.064 	"/>
	<rect x="13.479" y="21.323" fill="#1A171B" width="7.057" height="1.301"/>
	<rect x="13.479" y="23.584" fill="#1A171B" width="7.057" height="1.301"/>
	<rect x="13.479" y="19.063" fill="#1A171B" width="7.057" height="1.301"/>
	<rect x="13.479" y="16.803" fill="#1A171B" width="7.057" height="1.3"/>
	<rect x="13.479" y="14.543" fill="#1A171B" width="7.057" height="1.3"/>
	<rect x="13.479" y="12.283" fill="#1A171B" width="7.057" height="1.3"/>
</g>
</svg>
