<?xml version="1.0" encoding="utf-8"?>
<!-- Generator: Adobe Illustrator 16.0.0, SVG Export Plug-In . SVG Version: 6.00 Build 0)  -->
<!DOCTYPE svg PUBLIC "-//W3C//DTD SVG 1.1//EN" "http://www.w3.org/Graphics/SVG/1.1/DTD/svg11.dtd">
<svg version="1.1" id="Vrstva_1" xmlns="http://www.w3.org/2000/svg" xmlns:xlink="http://www.w3.org/1999/xlink" x="0px" y="0px"
	 width="34.02px" height="34.02px" viewBox="0 0 34.02 34.02" enable-background="new 0 0 34.02 34.02" xml:space="preserve">
<g>
	<path d="M17.005,11.625c1.359,0,2.465-1.105,2.465-2.465s-1.105-2.466-2.465-2.466S14.54,7.801,14.54,9.161
		S15.646,11.625,17.005,11.625z M17.005,7.895c0.698,0,1.266,0.567,1.266,1.266c0,0.697-0.567,1.265-1.266,1.265
		c-0.697,0-1.265-0.567-1.265-1.265C15.74,8.462,16.308,7.895,17.005,7.895z"/>
	<path d="M31.503,10.429h-0.005V8.477h-8.319c-0.341-3.11-2.974-5.53-6.174-5.53s-5.833,2.42-6.174,5.53H2.513v22.592h28.985V12.92
		l0.005-0.01V10.429z M23.189,9.676h7.109v2.963L23.599,26.12l0.902,0.447l-7.182-3.294l5.275-11.395h-0.001
		C22.922,11.204,23.125,10.459,23.189,9.676z M9.127,20.836l19.691,9.032H4.88L9.127,20.836z M3.713,29.528V18.352l4.324,1.983
		L3.713,29.528z M17.005,4.147c2.765,0,5.014,2.249,5.014,5.014c0,0.77-0.169,1.507-0.503,2.192l-0.841,1.726h0.042l-3.712,8.016
		l-4.5-9.72L12.5,11.364l-0.005-0.011c-0.334-0.687-0.504-1.424-0.504-2.192C11.991,6.396,14.24,4.147,17.005,4.147z M10.821,9.676
		c0.065,0.783,0.267,1.528,0.595,2.202l5.105,11.029l-6.883-3.158l0.024-0.051l-1.086-0.51l-0.028,0.061l-4.835-2.218V9.676H10.821z
		 M30.298,29.227l-5.622-2.578l5.622-11.313V29.227z"/>
</g>
</svg>
