<?xml version="1.0" encoding="utf-8"?>
<!-- Generator: Adobe Illustrator 16.0.0, SVG Export Plug-In . SVG Version: 6.00 Build 0)  -->
<!DOCTYPE svg PUBLIC "-//W3C//DTD SVG 1.1//EN" "http://www.w3.org/Graphics/SVG/1.1/DTD/svg11.dtd">
<svg version="1.1" id="Vrstva_1" xmlns="http://www.w3.org/2000/svg" xmlns:xlink="http://www.w3.org/1999/xlink" x="0px" y="0px"
	 width="34.016px" height="34.02px" viewBox="0 0 34.016 34.02" enable-background="new 0 0 34.016 34.02" xml:space="preserve">
<g>
	<path d="M29.918,8.311c0.759-0.579,1.257-1.482,1.257-2.508c0-1.745-1.42-3.165-3.165-3.165c-1.746,0-3.166,1.42-3.166,3.165
		c0,1.025,0.499,1.93,1.257,2.508c-2.141,0.782-3.676,2.834-3.676,5.243v1.684h11.17v-1.684
		C33.595,11.145,32.059,9.093,29.918,8.311z M25.844,5.803c0-1.194,0.972-2.165,2.166-2.165c1.193,0,2.165,0.971,2.165,2.165
		c0,1.193-0.972,2.165-2.165,2.165C26.815,7.968,25.844,6.996,25.844,5.803z M32.595,14.237h-9.17v-0.684
		c0-2.529,2.057-4.586,4.585-4.586s4.585,2.057,4.585,4.586V14.237z"/>
	<path d="M17.508,11.709l2.682-2.75l-2.682-2.751V2.68H0.421v12.558h17.087V11.709z M16.508,14.237H1.421V3.68h15.087v2.935
		l2.285,2.345l-2.285,2.343V14.237z"/>
	<rect x="3.755" y="6.714" width="10.384" height="1"/>
	<rect x="3.755" y="10.204" width="10.384" height="1"/>
	<path d="M7.914,24.452c0.759-0.578,1.257-1.482,1.257-2.508c0-1.746-1.42-3.166-3.165-3.166c-1.746,0-3.166,1.42-3.166,3.166
		c0,1.025,0.499,1.93,1.257,2.508c-2.141,0.783-3.676,2.834-3.676,5.242v1.685h11.17v-1.685
		C11.591,27.286,10.056,25.234,7.914,24.452z M3.84,21.944c0-1.194,0.972-2.166,2.166-2.166c1.194,0,2.165,0.972,2.165,2.166
		c0,1.193-0.971,2.165-2.165,2.165C4.812,24.109,3.84,23.138,3.84,21.944z M10.591,30.379h-9.17v-0.685
		c0-2.528,2.057-4.585,4.585-4.585s4.585,2.057,4.585,4.585V30.379z"/>
	<path d="M16.508,22.308l-2.682,2.751l2.682,2.75v3.528h17.087V18.779H16.508V22.308z M17.508,19.779h15.087v10.558H17.508v-2.935
		l-2.285-2.344l2.285-2.345V19.779z"/>
	<rect x="19.877" y="26.303" width="10.384" height="1"/>
	<rect x="19.877" y="22.813" width="10.384" height="1"/>
</g>
</svg>
