<?xml version="1.0" encoding="utf-8"?>
<!-- Generator: Adobe Illustrator 16.0.0, SVG Export Plug-In . SVG Version: 6.00 Build 0)  -->
<!DOCTYPE svg PUBLIC "-//W3C//DTD SVG 1.1//EN" "http://www.w3.org/Graphics/SVG/1.1/DTD/svg11.dtd">
<svg version="1.1" id="Vrstva_1" xmlns="http://www.w3.org/2000/svg" xmlns:xlink="http://www.w3.org/1999/xlink" x="0px" y="0px"
	 width="34.02px" height="34.02px" viewBox="0 0 34.02 34.02" enable-background="new 0 0 34.02 34.02" xml:space="preserve">
<g>
	<g>
		<g>
			<polygon points="30.985,8.316 25.688,8.316 25.688,3.02 26.889,3.02 26.889,7.116 30.985,7.116 			"/>
			<polygon points="8.327,8.316 3.03,8.316 3.03,7.116 7.127,7.116 7.127,3.02 8.327,3.02 			"/>
		</g>
		<g>
			<polygon points="26.889,30.998 25.688,30.998 25.688,25.701 30.985,25.701 30.985,26.902 26.889,26.902 			"/>
			<polygon points="8.327,30.998 7.127,30.998 7.127,26.902 3.03,26.902 3.03,25.701 8.327,25.701 			"/>
		</g>
	</g>
	<path d="M21.337,19.49c0-0.506-0.085-0.977-0.254-1.41c-0.17-0.433-0.412-0.808-0.729-1.125c-0.314-0.314-0.723-0.582-1.223-0.803
		c-0.232-0.102-0.685-0.236-1.352-0.408v-4.633c0.404,0.121,0.731,0.32,0.981,0.6c0.3,0.336,0.498,0.82,0.594,1.451l1.66-0.25
		c-0.143-1.018-0.565-1.818-1.268-2.402c-0.497-0.415-1.153-0.676-1.968-0.789V8.923h-0.255h-0.946h-0.274v0.802
		c-0.929,0.127-1.642,0.406-2.136,0.84c-0.809,0.709-1.214,1.633-1.214,2.775c0,0.643,0.139,1.217,0.415,1.723
		c0.277,0.506,0.671,0.902,1.184,1.188c0.595,0.334,1.178,0.568,1.751,0.709v5.125c-0.515-0.119-0.965-0.42-1.351-0.906
		c-0.314-0.404-0.535-1.039-0.66-1.9l-1.615,0.303c0.06,0.832,0.272,1.539,0.639,2.115c0.365,0.576,0.8,0.994,1.303,1.254
		c0.444,0.229,1.006,0.395,1.685,0.502v1.645h0.274h0.946h0.255v-1.646c1.008-0.1,1.841-0.488,2.494-1.174
		C20.983,21.531,21.337,20.604,21.337,19.49z M15.021,14.59c-0.307-0.369-0.46-0.826-0.46-1.375c0-0.553,0.181-1.031,0.541-1.438
		c0.305-0.342,0.706-0.572,1.202-0.693v4.301C15.716,15.176,15.288,14.913,15.021,14.59z M19.074,21.32
		c-0.351,0.4-0.782,0.654-1.294,0.768v-4.759c0.722,0.258,1.213,0.547,1.473,0.863c0.288,0.354,0.433,0.822,0.433,1.406
		C19.686,20.281,19.481,20.855,19.074,21.32z"/>
</g>
</svg>
