<?xml version="1.0" encoding="utf-8"?>
<!-- Generator: Adobe Illustrator 16.0.0, SVG Export Plug-In . SVG Version: 6.00 Build 0)  -->
<!DOCTYPE svg PUBLIC "-//W3C//DTD SVG 1.1//EN" "http://www.w3.org/Graphics/SVG/1.1/DTD/svg11.dtd">
<svg version="1.1" id="Vrstva_1" xmlns="http://www.w3.org/2000/svg" xmlns:xlink="http://www.w3.org/1999/xlink" x="0px" y="0px"
	 width="34.02px" height="34.02px" viewBox="0 0 34.02 34.02" enable-background="new 0 0 34.02 34.02" xml:space="preserve">
<g>
	<polygon points="26.505,31.498 4.772,31.498 4.772,4.351 10.715,4.351 10.715,5.551 5.973,5.551 5.973,30.299 25.305,30.299 
		25.305,5.551 20.562,5.551 20.562,4.351 26.505,4.351 	"/>
	<path d="M21.162,7.416H10.115V2.514h11.047V7.416z M11.315,6.215h8.646V3.714h-8.646V6.215z"/>
	<rect x="8.448" y="11.586" width="10.31" height="1.201"/>
	<rect x="8.448" y="16.108" width="10.31" height="1.199"/>
	<rect x="8.448" y="20.629" width="10.31" height="1.199"/>
	<rect x="8.448" y="25.148" width="10.31" height="1.201"/>
	<rect x="20.315" y="11.586" width="2.681" height="1.201"/>
	<rect x="20.315" y="16.108" width="2.681" height="1.199"/>
	<rect x="20.315" y="20.629" width="2.681" height="1.199"/>
	<rect x="20.315" y="25.148" width="2.681" height="1.201"/>
	<polygon points="29.244,26.166 28.537,27.297 27.849,26.166 27.849,8.554 29.244,8.554 	"/>
</g>
</svg>
