<?xml version="1.0" encoding="utf-8"?>
<!-- Generator: Adobe Illustrator 16.0.0, SVG Export Plug-In . SVG Version: 6.00 Build 0)  -->
<!DOCTYPE svg PUBLIC "-//W3C//DTD SVG 1.1//EN" "http://www.w3.org/Graphics/SVG/1.1/DTD/svg11.dtd">
<svg version="1.1" id="Vrstva_1" xmlns="http://www.w3.org/2000/svg" xmlns:xlink="http://www.w3.org/1999/xlink" x="0px" y="0px"
	 width="34.02px" height="34.02px" viewBox="0 0 34.02 34.02" enable-background="new 0 0 34.02 34.02" xml:space="preserve">
<g>
	<path d="M14.904,4.216l5.854,5.853l-1.436,4.913l9.027,9.025h0.001l1.449,1.449l-0.982,3.359l-3.359,0.982l-1.45-1.451
		l-0.928-0.928l-8.1-8.098l-4.911,1.436l-5.854-5.853l1.272-4.352l2.129,2.129l0.78,0.781l2.144,2.143l3.723-0.998l0.344-0.344
		l0.997-3.721l-2.924-2.924l-2.129-2.13L14.904,4.216 M15.25,2.865l-0.683,0.199l-4.352,1.271L8.271,4.903l1.432,1.433l2.129,2.13
		l2.435,2.433l-0.712,2.656l-2.655,0.711l-1.653-1.654l-0.78-0.779L6.337,9.703L4.904,8.271l-0.567,1.944l-1.273,4.352L2.864,15.25
		l0.503,0.502l5.854,5.853l0.503,0.502l0.683-0.199l4.229-1.236l7.597,7.596l0.928,0.928l1.451,1.449l0.502,0.502l0.683-0.199
		l3.359-0.98l0.63-0.186l0.186-0.631l0.981-3.359l0.2-0.682l-0.504-0.502l-1.098-1.1l0,0l-0.352-0.352l-8.524-8.521l1.235-4.23
		l0.199-0.682L21.606,9.22l-5.854-5.853L15.25,2.865L15.25,2.865z"/>
	<polygon points="27.944,25.975 27.529,27.523 25.976,27.939 24.838,26.807 25.253,25.258 26.807,24.84 	"/>
</g>
</svg>
