<?xml version="1.0" encoding="utf-8"?>
<!-- Generator: Adobe Illustrator 16.0.0, SVG Export Plug-In . SVG Version: 6.00 Build 0)  -->
<!DOCTYPE svg PUBLIC "-//W3C//DTD SVG 1.1//EN" "http://www.w3.org/Graphics/SVG/1.1/DTD/svg11.dtd">
<svg version="1.1" id="Vrstva_1" xmlns="http://www.w3.org/2000/svg" xmlns:xlink="http://www.w3.org/1999/xlink" x="0px" y="0px"
	 width="34.02px" height="34.02px" viewBox="0 0 34.02 34.02" enable-background="new 0 0 34.02 34.02" xml:space="preserve">
<g>
	<path d="M25.333,17.328C25.333,17.328,25.334,17.328,25.333,17.328c-2.31,0-4.479-0.899-6.112-2.532
		c-3.327-3.327-3.408-8.614-0.185-12.037l0.425-0.45l12.246,12.247l-0.449,0.424C29.65,16.494,27.545,17.328,25.333,17.328z
		 M19.504,4.048c-2.355,2.944-2.152,7.181,0.564,9.898c1.406,1.406,3.276,2.181,5.265,2.181c1.697,0,3.32-0.57,4.634-1.616
		L19.504,4.048z"/>
	<path d="M13.411,26.875l-6.271-6.27l9.802-9.801l6.271,6.27L13.411,26.875z M8.837,20.605l4.573,4.572l8.104-8.104L16.942,12.5
		L8.837,20.605z"/>
	<path d="M23.637,31.707l-8.378-8.377l4.407-4.406l8.377,8.377L23.637,31.707z M16.957,23.33l6.681,6.68l2.71-2.709l-6.681-6.682
		L16.957,23.33z"/>
	<path d="M10.686,18.756l-8.378-8.377l4.406-4.406l8.379,8.378L10.686,18.756z M4.005,10.378l6.681,6.681l2.71-2.709L6.714,7.668
		L4.005,10.378z"/>
	<rect x="26.499" y="4.38" transform="matrix(0.7071 0.7071 -0.7071 0.7071 12.8279 -17.1362)" width="1.2" height="5.073"/>
	<polygon points="28.73,2.764 30.621,3.274 31.127,5.176 29.744,6.57 27.853,6.061 27.346,4.158 	"/>
</g>
</svg>
