<?xml version="1.0" encoding="utf-8"?>
<!-- Generator: Adobe Illustrator 16.0.0, SVG Export Plug-In . SVG Version: 6.00 Build 0)  -->
<!DOCTYPE svg PUBLIC "-//W3C//DTD SVG 1.1//EN" "http://www.w3.org/Graphics/SVG/1.1/DTD/svg11.dtd">
<svg version="1.1" id="Vrstva_1" xmlns="http://www.w3.org/2000/svg" xmlns:xlink="http://www.w3.org/1999/xlink" x="0px" y="0px"
	 width="34.02px" height="34.02px" viewBox="0 0 34.02 34.02" enable-background="new 0 0 34.02 34.02" xml:space="preserve">
<path d="M33.909,23.674l-5.77-3.21V2.594L13.759,8.784H3.774v1.031H0.101v8.646h3.674v1.031H6.97l3.443,10.502l4.904-1.607
	L12.4,19.492h1.359l9.165,3.942l0.862,7.056l2.801-3.211l2.227,3.311l3.295-2.219l-2.227-3.311L33.909,23.674z M1.3,17.26v-6.245
	h2.475v6.245H1.3z M4.974,9.984h8.309v8.309H4.974V9.984z M13.804,27.621l-2.623,0.859l-2.947-8.988h2.905L13.804,27.621z
	 M14.483,18.496V9.779L26.94,4.417v15.379l-4.787-2.664l0.602,4.924L14.483,18.496z M30.442,28.045l-1.303,0.879l-2.43-3.611
	l-2.059,2.361l-0.596-4.868l0.068-0.159l-0.093-0.04l-0.401-3.278l7.348,4.086l-2.963,1.021L30.442,28.045z"/>
</svg>
