<?xml version="1.0" encoding="utf-8"?>
<!-- Generator: Adobe Illustrator 16.0.0, SVG Export Plug-In . SVG Version: 6.00 Build 0)  -->
<!DOCTYPE svg PUBLIC "-//W3C//DTD SVG 1.1//EN" "http://www.w3.org/Graphics/SVG/1.1/DTD/svg11.dtd">
<svg version="1.1" id="Vrstva_1" xmlns="http://www.w3.org/2000/svg" xmlns:xlink="http://www.w3.org/1999/xlink" x="0px" y="0px"
	 width="34.02px" height="34.02px" viewBox="0 0 34.02 34.02" enable-background="new 0 0 34.02 34.02" xml:space="preserve">
<g>
	<path d="M19.609,10.66h-5.103v12.694h5.103V10.66z M18.409,22.154h-2.703V11.86h2.703V22.154z"/>
	<path d="M30.901,11.605v-1.199h-3.725V6.889H23.61V3.115h-1.2v3.773h-2.801V3.115h-1.2v3.773h-2.801V3.115h-1.201v3.773h-2.801
		V3.115h-1.199v3.773H6.938v3.518H3.114v1.199h3.824v2.802H3.114v1.2h3.824v2.801H3.114v1.2h3.824v2.801H3.114v1.2h3.824v3.518
		h3.469V30.9h1.199v-3.773h2.801V30.9h1.201v-3.773h2.801V30.9h1.2v-3.773h2.801V30.9h1.2v-3.773h3.566v-3.518h3.725v-1.2h-3.725
		v-2.801h3.725v-1.2h-3.725v-2.801h3.725v-1.2h-3.725v-2.802H30.901z M25.978,25.927H8.138V8.089h17.84V25.927z"/>
</g>
</svg>
