<?xml version="1.0" encoding="utf-8"?>
<!-- Generator: Adobe Illustrator 16.0.0, SVG Export Plug-In . SVG Version: 6.00 Build 0)  -->
<!DOCTYPE svg PUBLIC "-//W3C//DTD SVG 1.1//EN" "http://www.w3.org/Graphics/SVG/1.1/DTD/svg11.dtd">
<svg version="1.1" id="Vrstva_1" xmlns="http://www.w3.org/2000/svg" xmlns:xlink="http://www.w3.org/1999/xlink" x="0px" y="0px"
	 width="34.02px" height="34.02px" viewBox="0 0 34.02 34.02" enable-background="new 0 0 34.02 34.02" xml:space="preserve">
<g>
	<rect x="16.007" y="14.405" width="8.967" height="1.2"/>
	<rect x="16.007" y="18.173" width="8.967" height="1.2"/>
	<rect x="16.007" y="21.94" width="8.967" height="1.2"/>
	<path d="M31.382,5.461H6.771v3.531H2.633v19.562h25.151v-3.944h3.598V5.461z M26.584,27.354H3.833V10.191h22.751V27.354z
		 M30.183,23.409h-2.398V8.992H7.971V6.66h22.212V23.409z"/>
	<path d="M14.437,22.027c0-1.749-1.04-3.251-2.527-3.947c0.453-0.464,0.734-1.097,0.734-1.796c0-1.419-1.155-2.574-2.575-2.574
		c-1.419,0-2.574,1.155-2.574,2.574c0,0.699,0.282,1.331,0.735,1.795c-1.488,0.697-2.528,2.199-2.528,3.948v1.477h8.735V22.027z
		 M8.694,16.284c0-0.758,0.616-1.374,1.374-1.374c0.759,0,1.375,0.616,1.375,1.374s-0.616,1.375-1.375,1.375
		C9.311,17.659,8.694,17.042,8.694,16.284z M13.236,22.304H6.901v-0.276c0-1.747,1.421-3.168,3.167-3.168
		c1.747,0,3.168,1.421,3.168,3.168V22.304z"/>
</g>
</svg>
