<?xml version="1.0" encoding="utf-8"?>
<!-- Generator: Adobe Illustrator 16.0.0, SVG Export Plug-In . SVG Version: 6.00 Build 0)  -->
<!DOCTYPE svg PUBLIC "-//W3C//DTD SVG 1.1//EN" "http://www.w3.org/Graphics/SVG/1.1/DTD/svg11.dtd">
<svg version="1.1" id="Vrstva_1" xmlns="http://www.w3.org/2000/svg" xmlns:xlink="http://www.w3.org/1999/xlink" x="0px" y="0px"
	 width="34.02px" height="34.02px" viewBox="0 0 34.02 34.02" enable-background="new 0 0 34.02 34.02" xml:space="preserve">
<g>
	<g>
		<path d="M21.281,25.252h-8.546v-0.6c0-0.871-0.47-3.865-1.905-5.301c-1.826-1.826-1.771-4.517-1.768-4.63
			c0-5.109,3.664-7.042,5.848-7.739l0.02-0.006c0.232-0.065,1.074-0.279,2.13-0.279c0.717,0,1.386,0.1,1.989,0.296
			c0.167,0.055,0.329,0.102,0.495,0.144l0.063,0.02c3.448,1.286,5.347,3.979,5.347,7.583c0.004,0.096,0.059,2.787-1.768,4.613
			c-1.436,1.436-1.904,4.43-1.904,5.301V25.252z M13.896,24.053h6.224c0.137-1.309,0.673-4.006,2.217-5.549
			c1.454-1.455,1.417-3.726,1.417-3.75c0-3.926-2.461-5.68-4.537-6.463c-0.182-0.046-0.357-0.098-0.539-0.157
			c-0.483-0.156-1.027-0.236-1.618-0.236c-0.906,0-1.635,0.188-1.795,0.232c-2.284,0.73-5.002,2.47-5.002,6.609
			c-0.001,0.039-0.038,2.311,1.417,3.765C13.223,20.047,13.76,22.746,13.896,24.053z"/>
		<rect x="12.416" y="27.066" width="9.185" height="1.199"/>
		<rect x="14.705" y="29.99" width="4.605" height="1.199"/>
	</g>
	<polygon points="26.89,29.297 25.689,29.297 25.689,24 30.985,24 30.985,25.201 26.89,25.201 	"/>
	<polygon points="30.985,8.121 25.689,8.121 25.689,2.825 26.889,2.825 26.889,6.922 30.985,6.922 	"/>
	<polygon points="8.327,8.121 3.031,8.121 3.031,6.922 7.127,6.922 7.127,2.825 8.327,2.825 	"/>
	<polygon points="8.327,29.297 7.127,29.297 7.127,25.201 3.031,25.201 3.031,24 8.327,24 	"/>
</g>
</svg>
