<svg width="200" height="28" viewBox="0 0 200 28" fill="none" xmlns="http://www.w3.org/2000/svg">
<g clip-path="url(#clip0_605_220)">
<path d="M195.112 13.2596C195.203 13.4447 195.294 13.599 195.415 13.7223C195.537 13.8458 195.719 13.9691 195.931 14.0617C196.174 14.1542 196.356 14.2468 196.539 14.2777C196.721 14.3085 196.964 14.3702 197.268 14.4319C197.51 14.4936 197.692 14.5245 197.814 14.5553C197.936 14.5861 198.087 14.617 198.269 14.6787C198.452 14.7404 198.573 14.8021 198.664 14.8947C198.755 14.9564 198.816 15.0489 198.877 15.1723C198.937 15.2957 198.968 15.4191 198.968 15.5734C198.968 15.7893 198.907 16.0053 198.816 16.1595C198.694 16.3138 198.542 16.468 198.3 16.5606C198.057 16.6531 197.753 16.7148 197.389 16.7148C196.478 16.7148 195.962 16.3755 195.871 15.6967H194.869C194.869 16.3138 195.112 16.7765 195.567 17.085C196.023 17.4244 196.63 17.5787 197.358 17.5787C198.148 17.5787 198.785 17.3935 199.271 17.0233C199.757 16.6531 200 16.1287 200 15.45C200 15.234 199.97 15.0489 199.909 14.8638C199.848 14.6787 199.757 14.5245 199.666 14.401C199.545 14.2777 199.423 14.1542 199.302 14.0617C199.18 13.9691 198.998 13.8766 198.816 13.8149C198.634 13.7532 198.452 13.6915 198.269 13.6606C198.087 13.6298 197.905 13.5681 197.662 13.5372C197.632 13.5372 197.632 13.5064 197.601 13.5064C197.571 13.5064 197.571 13.5064 197.571 13.5064H197.541C197.328 13.4755 197.206 13.4447 197.085 13.4138C196.994 13.383 196.842 13.3522 196.69 13.2904C196.539 13.2287 196.417 13.1671 196.326 13.1053C196.235 13.0436 196.174 12.9511 196.113 12.8277C196.053 12.7043 196.023 12.5809 196.023 12.4266C196.023 12.2107 196.083 11.9947 196.205 11.8405C196.326 11.6554 196.508 11.532 196.721 11.4703C196.933 11.3777 197.176 11.3469 197.449 11.3469C197.753 11.3469 198.026 11.4086 198.239 11.5011C198.452 11.6245 198.634 11.7479 198.725 11.9022C198.816 12.0564 198.877 12.2107 198.907 12.3958H199.848C199.848 12.1181 199.787 11.8713 199.697 11.6245C199.575 11.3777 199.423 11.1926 199.21 11.0384C198.998 10.8841 198.755 10.7299 198.452 10.6373C198.148 10.5448 197.844 10.4831 197.48 10.4831C196.781 10.4831 196.205 10.6682 195.719 11.0075C195.233 11.3469 195.02 11.8713 195.02 12.55C194.99 12.8277 195.02 13.0436 195.112 13.2596ZM188.826 13.4138C188.826 12.7968 188.978 12.3032 189.312 11.9639C189.616 11.5937 190.041 11.4086 190.557 11.4086C190.891 11.4086 191.195 11.5011 191.468 11.6554C191.741 11.8096 191.923 12.0564 192.075 12.3649C192.227 12.6734 192.288 13.0128 192.288 13.4138V13.5372H188.826V13.4138ZM191.711 17.4244C192.045 17.301 192.288 17.1776 192.5 16.9925C192.713 16.8074 192.865 16.6223 192.986 16.4372C193.108 16.2521 193.168 16.067 193.199 15.851H192.136C192.075 16.067 191.893 16.2829 191.62 16.4372C191.347 16.5914 191.013 16.684 190.618 16.684C190.041 16.684 189.586 16.4989 189.282 16.1287C188.978 15.7585 188.796 15.2649 188.796 14.6787V14.3393H193.29V13.5064C193.29 12.6117 193.047 11.8713 192.531 11.316C192.015 10.7607 191.347 10.4831 190.557 10.4831C189.737 10.4831 189.069 10.7607 188.584 11.316C188.068 11.8713 187.825 12.5809 187.825 13.5064V14.617C187.825 15.5425 188.068 16.2521 188.584 16.8074C189.1 17.3627 189.768 17.6095 190.679 17.6095C191.043 17.6095 191.407 17.5478 191.711 17.4244ZM184.545 9.00225C184.697 9.15649 184.879 9.21818 185.092 9.21818C185.244 9.21818 185.365 9.18735 185.487 9.12562C185.608 9.06394 185.699 8.97138 185.76 8.848C185.82 8.72458 185.851 8.60116 185.851 8.44692C185.851 8.23099 185.79 8.04588 185.639 7.89164C185.487 7.73735 185.304 7.67567 185.092 7.67567C184.879 7.67567 184.697 7.73735 184.545 7.89164C184.394 8.04588 184.333 8.23099 184.333 8.44692C184.333 8.6629 184.394 8.848 184.545 9.00225ZM185.608 10.6064H184.606V17.4861H185.608V10.6064ZM180.659 11.9947C180.993 12.3958 181.145 12.8585 181.145 13.383V14.4936C181.145 15.018 180.993 15.4808 180.689 15.851C180.386 16.2212 179.961 16.4372 179.414 16.4372C178.868 16.4372 178.412 16.2212 178.048 15.8202C177.683 15.4191 177.532 14.8947 177.532 14.2468V13.5681C177.532 13.2287 177.562 12.9511 177.653 12.6734C177.744 12.3958 177.865 12.1798 178.017 11.9639C178.169 11.7788 178.382 11.6245 178.625 11.532C178.868 11.4394 179.11 11.3777 179.414 11.3777C179.93 11.4086 180.355 11.5937 180.659 11.9947ZM178.2 18.8744C177.926 18.6893 177.744 18.4733 177.714 18.2265H176.651C176.712 18.7509 176.955 19.2137 177.38 19.5531C177.805 19.8924 178.442 20.0775 179.232 20.0775C180.143 20.0775 180.871 19.8616 181.387 19.3988C181.904 18.9361 182.177 18.2574 182.177 17.3319V10.6064H181.205V11.6245H181.145C181.023 11.316 180.78 11.0692 180.416 10.8224C180.052 10.6064 179.626 10.4831 179.171 10.4831C178.806 10.4831 178.442 10.5448 178.108 10.6682C177.774 10.7916 177.501 10.9767 177.258 11.2235C177.015 11.4703 176.833 11.7788 176.681 12.1181C176.529 12.4884 176.469 12.8894 176.469 13.2904V14.4628C176.469 15.0489 176.59 15.5425 176.833 15.9744C177.076 16.4063 177.41 16.7457 177.805 16.9616C178.2 17.1776 178.655 17.301 179.171 17.301C179.475 17.301 179.748 17.2393 180.021 17.1467C180.294 17.0542 180.507 16.9308 180.689 16.7457C180.871 16.5914 180.993 16.4063 181.084 16.1904H181.145V17.2393C181.145 17.8254 180.993 18.2574 180.659 18.5967C180.355 18.9052 179.869 19.0595 179.262 19.0595C178.837 19.152 178.473 19.0595 178.2 18.8744ZM170.669 12.0256C171.003 11.6245 171.459 11.4086 172.036 11.4086C172.613 11.4086 173.038 11.5937 173.372 11.9947C173.706 12.3958 173.888 12.9203 173.888 13.599V14.4628C173.888 15.1415 173.736 15.6659 173.402 16.067C173.068 16.468 172.613 16.6531 172.036 16.6531C171.641 16.6531 171.307 16.5606 171.034 16.3755C170.761 16.1904 170.548 15.9436 170.396 15.6042C170.245 15.2649 170.184 14.8947 170.184 14.4319V13.5681C170.153 12.9511 170.305 12.4266 170.669 12.0256ZM169.941 11.316C169.394 11.8713 169.121 12.5809 169.121 13.5064V14.5861C169.121 15.5425 169.394 16.2829 169.91 16.8074C170.426 17.3319 171.125 17.6095 172.006 17.6095C172.855 17.6095 173.523 17.3319 174.07 16.8074C174.616 16.2829 174.89 15.5425 174.89 14.5861V13.5064C174.89 12.5809 174.616 11.8405 174.1 11.316C173.554 10.7916 172.886 10.5139 172.036 10.5139C171.186 10.4831 170.487 10.7607 169.941 11.316ZM167.056 8.04588H166.024V17.4861H167.056V8.04588ZM159.739 12.0256C160.073 11.6245 160.528 11.4086 161.105 11.4086C161.682 11.4086 162.107 11.5937 162.441 11.9947C162.775 12.3958 162.957 12.9203 162.957 13.599V14.4628C162.957 15.1415 162.806 15.6659 162.471 16.067C162.138 16.468 161.682 16.6531 161.105 16.6531C160.71 16.6531 160.377 16.5606 160.103 16.3755C159.83 16.1904 159.617 15.9436 159.466 15.6042C159.314 15.2649 159.253 14.8947 159.253 14.4319V13.5681C159.223 12.9511 159.405 12.4266 159.739 12.0256ZM159.041 11.316C158.494 11.8713 158.221 12.5809 158.221 13.5064V14.5861C158.221 15.5425 158.494 16.2829 159.01 16.8074C159.526 17.3319 160.225 17.6095 161.105 17.6095C161.955 17.6095 162.623 17.3319 163.17 16.8074C163.716 16.2829 163.99 15.5425 163.99 14.5861V13.5064C163.99 12.5809 163.716 11.8405 163.2 11.316C162.654 10.7916 161.986 10.5139 161.135 10.5139C160.255 10.4831 159.587 10.7607 159.041 11.316ZM151.784 17.4861V13.6298C151.784 12.9819 151.936 12.4575 152.27 12.0256C152.603 11.5937 153.059 11.4086 153.666 11.4086C154.152 11.4086 154.516 11.5628 154.79 11.8405C155.063 12.1181 155.184 12.55 155.184 13.1053V17.5169H156.187V12.7968C156.187 12.0564 155.974 11.5011 155.549 11.1001C155.124 10.699 154.577 10.5139 153.848 10.5139C152.755 10.5139 152.087 10.9767 151.784 11.9022H151.723V10.6373H150.721V17.5169H151.784V17.4861ZM143.981 17.4861V13.6298C143.981 12.9819 144.132 12.4575 144.466 12.0256C144.8 11.5937 145.256 11.4086 145.832 11.4086C146.319 11.4086 146.713 11.5628 146.987 11.8405C147.26 12.149 147.412 12.55 147.412 13.1053V17.4861H148.444V12.766C148.444 12.0256 148.231 11.4703 147.806 11.0692C147.381 10.6682 146.835 10.4831 146.167 10.4831C145.893 10.4831 145.651 10.5139 145.408 10.5756C145.164 10.6373 144.983 10.7299 144.831 10.8224C144.679 10.915 144.558 11.0384 144.436 11.1618C144.315 11.2851 144.223 11.4086 144.163 11.532C144.102 11.6554 144.071 11.7479 144.041 11.8713H143.981V8.04588H142.978V17.4861H143.981ZM136.42 16.8074C136.906 17.3319 137.604 17.6095 138.455 17.6095C139.274 17.6095 139.912 17.4244 140.337 17.0233C140.793 16.6531 141.005 16.1904 141.035 15.6659H140.033C139.881 16.3138 139.335 16.6223 138.455 16.6223C138.09 16.6223 137.787 16.5297 137.513 16.3755C137.24 16.2212 137.027 15.9744 136.906 15.6967C136.754 15.3883 136.694 15.0489 136.694 14.6479V13.4755C136.694 12.8277 136.845 12.3341 137.149 11.9639C137.452 11.5937 137.908 11.4086 138.485 11.4086C138.758 11.4086 138.971 11.4394 139.183 11.532C139.396 11.5937 139.548 11.7171 139.639 11.8405C139.76 11.9639 139.821 12.0873 139.881 12.1798C139.942 12.3032 139.973 12.3958 140.003 12.5192H141.005C140.974 11.9947 140.762 11.532 140.306 11.1001C139.851 10.699 139.244 10.4831 138.455 10.4831C137.604 10.4831 136.906 10.7607 136.42 11.2851C135.934 11.8096 135.661 12.55 135.661 13.4447V14.6479C135.691 15.5425 135.934 16.2521 136.42 16.8074ZM129.528 13.4138C129.528 12.7968 129.68 12.3032 130.013 11.9639C130.317 11.5937 130.742 11.4086 131.258 11.4086C131.593 11.4086 131.896 11.5011 132.169 11.6554C132.443 11.8096 132.625 12.0564 132.777 12.3649C132.929 12.6734 132.989 13.0128 132.989 13.4138V13.5372H129.528V13.4138ZM132.443 17.4244C132.777 17.301 133.019 17.1776 133.232 16.9925C133.445 16.8074 133.597 16.6223 133.718 16.4372C133.839 16.2521 133.9 16.067 133.93 15.851H132.868C132.807 16.067 132.625 16.2829 132.352 16.4372C132.078 16.5914 131.744 16.684 131.35 16.684C130.773 16.684 130.317 16.4989 130.013 16.1287C129.71 15.7585 129.528 15.2649 129.528 14.6787V14.3393H134.022V13.5064C134.022 12.6117 133.779 11.8713 133.262 11.316C132.746 10.7607 132.078 10.4831 131.289 10.4831C130.469 10.4831 129.801 10.7607 129.315 11.316C128.799 11.8713 128.556 12.5809 128.556 13.5064V14.617C128.556 15.5425 128.799 16.2521 129.315 16.8074C129.832 17.3627 130.5 17.6095 131.41 17.6095C131.744 17.6095 132.109 17.5478 132.443 17.4244ZM124.639 9.46497H127.342V8.53948H120.905V9.46497H123.607V17.4861H124.639V9.46497Z" fill="#017895"/>
<path d="M65.0069 10.6064L63.1242 16.4372H63.0939L61.2117 10.6064H60.0879L62.6082 17.6095L62.4866 17.9797C62.3654 18.3499 62.2134 18.6584 62.0312 18.8435C61.8186 19.0286 61.5455 19.1212 61.1506 19.1212C60.9381 19.1212 60.7866 19.1212 60.6649 19.0903V19.9541C60.8775 19.985 61.09 20.0158 61.3026 20.0158C61.6364 20.0158 61.91 19.9541 62.1528 19.8616C62.3957 19.769 62.6082 19.6148 62.7602 19.3988C62.942 19.1829 63.0636 18.9977 63.1545 18.7818C63.2459 18.5967 63.3671 18.3499 63.4584 18.0414L63.6407 17.5478L66.1 10.5756H65.0069V10.6064ZM54.2887 16.8074C54.7745 17.3318 55.4727 17.6095 56.3229 17.6095C57.1429 17.6095 57.7805 17.4244 58.2056 17.0233C58.6307 16.6223 58.8736 16.1904 58.9039 15.6659H57.9017C57.7502 16.3138 57.2035 16.6223 56.3229 16.6223C55.9589 16.6223 55.655 16.5297 55.3818 16.3755C55.1087 16.2212 54.8961 15.9744 54.7745 15.6968C54.6532 15.4191 54.5619 15.0489 54.5619 14.6478V13.4755C54.5619 12.8277 54.7139 12.3341 55.0173 11.9639C55.3212 11.5937 55.7766 11.4086 56.3532 11.4086C56.6268 11.4086 56.8394 11.4394 57.0519 11.5319C57.2645 11.5937 57.416 11.7171 57.5074 11.8405C57.6286 11.9639 57.6892 12.0873 57.7502 12.1798C57.8108 12.3032 57.8411 12.3958 57.8714 12.5192H58.8736C58.8433 11.9947 58.6307 11.5319 58.1753 11.1C57.7199 10.699 57.1126 10.4831 56.3229 10.4831C55.4727 10.4831 54.7745 10.7607 54.2887 11.2852C53.803 11.8096 53.5299 12.5192 53.5299 13.4447V14.6478C53.5602 15.5425 53.803 16.2521 54.2887 16.8074ZM47.8216 16.3755C47.5481 16.1595 47.3965 15.851 47.3965 15.45C47.3965 15.1106 47.5177 14.8329 47.7303 14.617C47.9429 14.401 48.2771 14.3085 48.7628 14.3085H50.5541V15.1106C50.5541 15.5734 50.4022 15.9435 50.0684 16.2521C49.7342 16.5606 49.3394 16.7148 48.8537 16.7148C48.4286 16.7148 48.0948 16.5914 47.8216 16.3755ZM50.5238 16.5606H50.5541V17.4861H51.5563V12.766C51.5563 11.9947 51.313 11.4086 50.8576 11.0384C50.4022 10.6681 49.7952 10.4831 49.0662 10.4831C48.3377 10.4831 47.7606 10.6373 47.3355 10.915C46.9104 11.1926 46.6675 11.6554 46.6069 12.2107H47.5784C47.7606 11.6554 48.216 11.3777 49.0056 11.3777C49.4913 11.3777 49.8558 11.5011 50.129 11.7171C50.4022 11.933 50.5238 12.2724 50.5238 12.7352V13.4447H48.7022C48.1857 13.4447 47.7606 13.5372 47.3965 13.6915C47.032 13.8766 46.7589 14.0926 46.5766 14.401C46.3944 14.7096 46.3035 15.0489 46.3035 15.45C46.3035 15.7585 46.3641 16.067 46.455 16.3138C46.5766 16.5914 46.7286 16.8074 46.9104 16.9925C47.0926 17.1776 47.3355 17.301 47.6091 17.4244C47.8822 17.5169 48.1857 17.5787 48.5199 17.5787C49.4307 17.6095 50.0987 17.2393 50.5238 16.5606ZM42.8116 17.4861V13.1362C42.8116 12.8277 42.8723 12.55 43.0242 12.3032C43.1456 12.0564 43.358 11.8405 43.6316 11.6862C43.9048 11.5319 44.2385 11.4394 44.6333 11.4394C44.8762 11.4394 45.0584 11.4394 45.1493 11.4703V10.5139C44.9675 10.4831 44.8459 10.4831 44.755 10.4831C44.2082 10.4831 43.7831 10.6064 43.4797 10.8224C43.176 11.0692 42.9634 11.316 42.8419 11.6245H42.7812V10.5448H41.7793V17.4244H42.8116V17.4861ZM35.1298 16.8074C35.6156 17.3318 36.3139 17.6095 37.1641 17.6095C37.9839 17.6095 38.6215 17.4244 39.0466 17.0233C39.4717 16.6223 39.7146 16.1904 39.7449 15.6659H38.743C38.5912 16.3138 38.0446 16.6223 37.1641 16.6223C36.7997 16.6223 36.4961 16.5297 36.2229 16.3755C35.9496 16.2212 35.7371 15.9744 35.6156 15.6968C35.4942 15.4191 35.4031 15.0489 35.4031 14.6478V13.4755C35.4031 12.8277 35.5549 12.3341 35.8585 11.9639C36.1621 11.5937 36.6176 11.4086 37.1945 11.4086C37.4677 11.4086 37.6803 11.4394 37.8928 11.5319C38.1054 11.5937 38.2572 11.7171 38.3483 11.8405C38.4697 11.9639 38.5304 12.0873 38.5912 12.1798C38.6519 12.3032 38.6823 12.3958 38.7126 12.5192H39.7146C39.6842 11.9947 39.4717 11.5319 39.0162 11.1C38.5608 10.699 37.9535 10.4831 37.1641 10.4831C36.3139 10.4831 35.6156 10.7607 35.1298 11.2852C34.644 11.8096 34.3707 12.5192 34.3707 13.4447V14.6478C34.4011 15.5425 34.644 16.2521 35.1298 16.8074ZM28.4803 12.0256C28.8143 11.6245 29.2698 11.4086 29.8467 11.4086C30.4235 11.4086 30.8487 11.5937 31.1826 11.9947C31.5166 12.3958 31.6684 12.9202 31.6684 13.599V14.4628C31.6684 15.1415 31.5166 15.6659 31.1826 16.067C30.8487 16.468 30.3932 16.6531 29.8163 16.6531C29.4216 16.6531 29.0876 16.5606 28.8143 16.3755C28.5411 16.1904 28.3285 15.9436 28.1767 15.6042C28.0249 15.2648 27.9642 14.8947 27.9642 14.4319V13.5681C27.9642 12.9511 28.116 12.4266 28.4803 12.0256ZM27.7516 11.316C27.2051 11.8713 26.9318 12.5809 26.9318 13.5064V14.5861C26.9318 15.5425 27.2051 16.2829 27.7213 16.8074C28.2374 17.3318 28.9358 17.6095 29.8163 17.6095C30.6665 17.6095 31.3345 17.3318 31.881 16.8074C32.4275 16.2829 32.7008 15.5425 32.7008 14.5861V13.5064C32.7008 12.5809 32.4275 11.8405 31.9113 11.316C31.3648 10.7916 30.6968 10.5139 29.8467 10.5139C28.9965 10.4831 28.2982 10.7607 27.7516 11.316ZM16.7906 17.4861V13.0436C16.7906 12.5809 16.9425 12.1798 17.2157 11.8713C17.5194 11.5628 17.8837 11.4086 18.3391 11.4086C18.7946 11.4086 19.1893 11.5628 19.4626 11.8405C19.7358 12.1181 19.8573 12.5192 19.8573 12.9819V17.5169H20.8593V13.0745C20.8593 12.6117 21.0111 12.2107 21.3147 11.9022C21.6184 11.5937 21.9827 11.4394 22.4381 11.4394C22.9239 11.4394 23.2883 11.5628 23.5312 11.8405C23.7741 12.1181 23.8955 12.4883 23.8955 12.9202V17.5169H24.8975V12.6734C24.8975 11.9947 24.685 11.4703 24.2903 11.1C23.8955 10.7299 23.349 10.5448 22.6507 10.5448C22.1345 10.5448 21.679 10.6681 21.3451 10.915C21.0111 11.1618 20.7378 11.4703 20.586 11.8405H20.5253C20.4645 11.6554 20.4038 11.5011 20.2824 11.316C20.1609 11.1618 20.0395 11.0384 19.8877 10.915C19.7358 10.7916 19.5537 10.699 19.3411 10.6373C19.1286 10.5756 18.8857 10.5448 18.6428 10.5448C17.6712 10.5448 17.0639 10.9458 16.821 11.7479H16.7603V10.6681H15.7583V17.5478H16.7906V17.4861ZM9.29104 13.4139C9.29104 12.7968 9.44286 12.3032 9.77684 11.9639C10.0805 11.5937 10.5055 11.4086 11.0217 11.4086C11.3557 11.4086 11.6594 11.5011 11.9326 11.6554C12.2058 11.8096 12.3881 12.0564 12.5399 12.3649C12.6916 12.6734 12.7524 13.0128 12.7524 13.4139V13.5372H9.29104V13.4139ZM12.2058 17.4244C12.5399 17.301 12.7828 17.1776 12.9953 16.9925C13.2078 16.8074 13.3597 16.6223 13.4811 16.4372C13.6026 16.2521 13.6633 16.067 13.6936 15.851H12.631C12.5702 16.067 12.3881 16.2829 12.1148 16.4372C11.8415 16.5914 11.5075 16.684 11.1128 16.684C10.5359 16.684 10.0805 16.4989 9.77684 16.1287C9.4732 15.7585 9.29104 15.2648 9.29104 14.6787V14.3393H13.7847V13.5064C13.7847 12.6117 13.5418 11.8713 13.0257 11.316C12.5095 10.7607 11.8415 10.4831 11.0521 10.4831C10.2323 10.4831 9.56429 10.7607 9.07848 11.316C8.56234 11.8713 8.31939 12.5809 8.31939 13.5064V14.617C8.31939 15.5425 8.56234 16.2521 9.07848 16.8074C9.59468 17.3627 10.2626 17.6095 11.1735 17.6095C11.5075 17.6095 11.8719 17.5478 12.2058 17.4244ZM2.76302 9.46498C4.6455 9.46498 5.61714 10.6373 5.61714 13.0128C5.61714 15.3574 4.67589 16.5297 2.76302 16.5297H1.0627V9.46498H2.76302ZM0.0303647 17.4861H2.79338C3.49173 17.4861 4.09898 17.3627 4.61515 17.1468C5.1313 16.9308 5.52602 16.6223 5.79931 16.1904C6.10294 15.7893 6.31545 15.2957 6.43693 14.7713C6.55835 14.2468 6.64948 13.6606 6.64948 12.9819C6.64948 12.3032 6.58874 11.7171 6.43693 11.1926C6.28511 10.6681 6.07255 10.2054 5.76892 9.77351C5.46532 9.37242 5.07061 9.06394 4.55442 8.84796C4.03826 8.63203 3.46136 8.50861 2.76302 8.50861H0V17.4861H0.0303647Z" fill="#FD271C"/>
<path d="M81.9797 9.52671H73.1745V18.4733H81.9797V9.52671Z" fill="#C11B00"/>
<path d="M81.9797 18.4733H73.1745V27.4199H81.9797V18.4733Z" fill="#FD271C"/>
<path d="M90.7849 0.580086H81.9797V9.52671H90.7849V0.580086Z" fill="#FF705D"/>
<path d="M108.395 0.580086H99.59V9.52671H108.395V0.580086Z" fill="#017895"/>
<path d="M108.395 9.52671H99.59V18.4733H108.395V9.52671Z" fill="#0097AB"/>
<path d="M99.59 0.580086L90.7849 9.52671H99.59V0.580086Z" fill="#0097AB"/>
<path d="M81.9797 0.580086L73.1745 9.52671H81.9797V0.580086Z" fill="#FD271C"/>
<path d="M90.7848 18.4733H81.9797V27.4199L90.7848 18.4733Z" fill="#FF705D"/>
<path d="M99.59 9.52671H90.7849V18.4733L99.59 9.52671Z" fill="#FF705D"/>
<path d="M117.2 0.580086H108.395V9.52671L117.2 0.580086Z" fill="#0097AB"/>
<path d="M108.395 18.4733H99.59V27.4199L108.395 18.4733Z" fill="#10C0D3"/>
</g>
<defs>
<clipPath id="clip0_605_220">
<rect width="200" height="26.8398" fill="white" transform="translate(0 0.580086)"/>
</clipPath>
</defs>
</svg>
