<svg width="646" height="379" viewBox="0 0 646 379" fill="none" xmlns="http://www.w3.org/2000/svg">
<circle cx="448" cy="307" r="72" fill="#006D75"/>
<path d="M405.45 279.264V296.136C405.45 297.01 405.564 297.314 406.248 297.314H406.552C407.236 297.314 407.312 297.01 407.312 296.136V289.524H411.188V296.63C411.188 300.164 410.352 301.19 407.122 301.19H405.45C402.182 301.19 401.346 300.164 401.346 296.63V278.77C401.346 275.236 402.182 274.21 405.45 274.21H407.122C410.352 274.21 411.188 275.236 411.188 278.77V284.736H407.312V279.264C407.312 278.39 407.236 278.086 406.552 278.086H406.248C405.564 278.086 405.45 278.39 405.45 279.264ZM417.306 279.34V301H413.62V279.34H417.306ZM413.62 277.82V274.4H417.306V277.82H413.62ZM422.961 279.34L423.493 284.812C423.797 287.89 424.025 291.956 424.177 295.87C424.291 291.956 424.557 287.89 424.861 284.812L425.393 279.34H428.737L426.381 301H421.555L419.199 279.34H422.961ZM434.319 279.34V301H430.633V279.34H434.319ZM430.633 277.82V274.4H434.319V277.82H430.633ZM442.063 296.744V291.69H445.521V297.124C445.521 300.278 444.761 301.19 441.911 301.19H440.391C437.465 301.19 436.743 300.278 436.743 297.124V283.216C436.743 280.062 437.465 279.15 440.391 279.15H441.911C444.761 279.15 445.521 280.062 445.521 283.216V288.27H442.063V283.596C442.063 282.836 441.949 282.57 441.379 282.57H441.113C440.543 282.57 440.429 282.836 440.429 283.596V296.744C440.429 297.504 440.543 297.77 441.113 297.77H441.379C441.949 297.77 442.063 297.504 442.063 296.744ZM458.826 301H454.722V278.238H452.518V274.4H461.03V278.238H458.826V301ZM467.489 296.744V293.172H470.947V297.124C470.947 300.278 470.187 301.19 467.337 301.19H465.817C462.891 301.19 462.169 300.278 462.169 297.124V283.216C462.169 280.062 462.891 279.15 465.817 279.15H467.337C470.187 279.15 470.947 280.062 470.947 283.216V291.424H465.855V296.744C465.855 297.504 465.969 297.77 466.539 297.77H466.805C467.375 297.77 467.489 297.504 467.489 296.744ZM465.855 283.596V288.194H467.489V283.596C467.489 282.836 467.375 282.57 466.805 282.57H466.539C465.969 282.57 465.855 282.836 465.855 283.596ZM478.612 296.744V291.69H482.07V297.124C482.07 300.278 481.31 301.19 478.46 301.19H476.94C474.014 301.19 473.292 300.278 473.292 297.124V283.216C473.292 280.062 474.014 279.15 476.94 279.15H478.46C481.31 279.15 482.07 280.062 482.07 283.216V288.27H478.612V283.596C478.612 282.836 478.498 282.57 477.928 282.57H477.662C477.092 282.57 476.978 282.836 476.978 283.596V296.744C476.978 297.504 477.092 297.77 477.662 297.77H477.928C478.498 297.77 478.612 297.504 478.612 296.744ZM489.773 301V283.558C489.773 282.836 489.697 282.57 489.127 282.57H488.899C488.329 282.57 488.139 282.95 488.139 283.71V301H484.453V274.4H488.139V280.746C488.443 279.72 489.127 279.15 490.495 279.15H491.179C492.965 279.15 493.497 279.986 493.497 282.19V301H489.773ZM406.174 317.558C406.174 316.836 406.098 316.57 405.528 316.57H405.3C404.73 316.57 404.54 316.95 404.54 317.71V330.63C404.54 331.39 404.73 331.77 405.3 331.77H405.528C406.098 331.77 406.174 331.504 406.174 330.782V317.558ZM404.54 339.18H400.854V313.34H404.35V315.582C404.54 314.062 405.224 313.15 406.896 313.15H407.58C409.366 313.15 409.898 313.986 409.898 316.19V332.15C409.898 334.354 409.366 335.19 407.58 335.19H406.896C405.528 335.19 404.844 334.62 404.54 333.594V339.18ZM415.997 335H412.311V313.34H415.807V316.038C415.997 314.214 416.719 313.15 418.049 313.15H418.277V317.14H417.973C416.491 317.14 415.997 317.824 415.997 319.762V335ZM429.098 317.216V331.124C429.098 334.278 428.338 335.19 425.45 335.19H423.74C420.814 335.19 420.092 334.278 420.092 331.124V317.216C420.092 314.062 420.814 313.15 423.74 313.15H425.45C428.338 313.15 429.098 314.062 429.098 317.216ZM423.778 317.596V330.744C423.778 331.504 423.892 331.77 424.462 331.77H424.728C425.298 331.77 425.412 331.504 425.412 330.744V317.596C425.412 316.836 425.298 316.57 424.728 316.57H424.462C423.892 316.57 423.778 316.836 423.778 317.596ZM436.757 330.744V325.69H440.215V331.124C440.215 334.278 439.455 335.19 436.605 335.19H435.085C432.159 335.19 431.437 334.278 431.437 331.124V317.216C431.437 314.062 432.159 313.15 435.085 313.15H436.605C439.455 313.15 440.215 314.062 440.215 317.216V322.27H436.757V317.596C436.757 316.836 436.643 316.57 436.073 316.57H435.807C435.237 316.57 435.123 316.836 435.123 317.596V330.744C435.123 331.504 435.237 331.77 435.807 331.77H436.073C436.643 331.77 436.757 331.504 436.757 330.744ZM447.842 330.744V327.172H451.3V331.124C451.3 334.278 450.54 335.19 447.69 335.19H446.17C443.244 335.19 442.522 334.278 442.522 331.124V317.216C442.522 314.062 443.244 313.15 446.17 313.15H447.69C450.54 313.15 451.3 314.062 451.3 317.216V325.424H446.208V330.744C446.208 331.504 446.322 331.77 446.892 331.77H447.158C447.728 331.77 447.842 331.504 447.842 330.744ZM446.208 317.596V322.194H447.842V317.596C447.842 316.836 447.728 316.57 447.158 316.57H446.892C446.322 316.57 446.208 316.836 446.208 317.596ZM458.66 330.744V328.236C458.66 326.982 458.204 326.488 456.418 325.196C454.138 323.448 453.53 322.346 453.53 319.572V317.216C453.53 314.062 454.29 313.15 457.178 313.15H458.66C461.548 313.15 462.346 314.062 462.346 317.216V321.016H458.85V317.596C458.85 316.836 458.774 316.57 458.166 316.57H457.938C457.33 316.57 457.216 316.836 457.216 317.596V319.724C457.216 320.978 457.672 321.472 459.458 322.764C461.738 324.474 462.346 325.614 462.346 328.388V331.124C462.346 334.278 461.548 335.19 458.66 335.19H457.178C454.29 335.19 453.53 334.278 453.53 331.124V326.944H457.026V330.744C457.026 331.504 457.102 331.77 457.71 331.77H457.938C458.546 331.77 458.66 331.504 458.66 330.744ZM469.597 330.744V328.236C469.597 326.982 469.141 326.488 467.355 325.196C465.075 323.448 464.467 322.346 464.467 319.572V317.216C464.467 314.062 465.227 313.15 468.115 313.15H469.597C472.485 313.15 473.283 314.062 473.283 317.216V321.016H469.787V317.596C469.787 316.836 469.711 316.57 469.103 316.57H468.875C468.267 316.57 468.153 316.836 468.153 317.596V319.724C468.153 320.978 468.609 321.472 470.395 322.764C472.675 324.474 473.283 325.614 473.283 328.388V331.124C473.283 334.278 472.485 335.19 469.597 335.19H468.115C465.227 335.19 464.467 334.278 464.467 331.124V326.944H467.963V330.744C467.963 331.504 468.039 331.77 468.647 331.77H468.875C469.483 331.77 469.597 331.504 469.597 330.744ZM480.838 330.744V327.172H484.296V331.124C484.296 334.278 483.536 335.19 480.686 335.19H479.166C476.24 335.19 475.518 334.278 475.518 331.124V317.216C475.518 314.062 476.24 313.15 479.166 313.15H480.686C483.536 313.15 484.296 314.062 484.296 317.216V325.424H479.204V330.744C479.204 331.504 479.318 331.77 479.888 331.77H480.154C480.724 331.77 480.838 331.504 480.838 330.744ZM479.204 317.596V322.194H480.838V317.596C480.838 316.836 480.724 316.57 480.154 316.57H479.888C479.318 316.57 479.204 316.836 479.204 317.596ZM491.657 330.744V328.236C491.657 326.982 491.201 326.488 489.415 325.196C487.135 323.448 486.527 322.346 486.527 319.572V317.216C486.527 314.062 487.287 313.15 490.175 313.15H491.657C494.545 313.15 495.343 314.062 495.343 317.216V321.016H491.847V317.596C491.847 316.836 491.771 316.57 491.163 316.57H490.935C490.327 316.57 490.213 316.836 490.213 317.596V319.724C490.213 320.978 490.669 321.472 492.455 322.764C494.735 324.474 495.343 325.614 495.343 328.388V331.124C495.343 334.278 494.545 335.19 491.657 335.19H490.175C487.287 335.19 486.527 334.278 486.527 331.124V326.944H490.023V330.744C490.023 331.504 490.099 331.77 490.707 331.77H490.935C491.543 331.77 491.657 331.504 491.657 330.744Z" fill="white"/>
<circle cx="574" cy="245" r="72" fill="#006D75"/>
<path d="M551.547 226.84L550.217 239H547.215L545.885 226.84C545.695 225.168 545.505 222.698 545.315 220.57C545.353 222.66 545.391 224.94 545.391 226.84V239H541.819V212.4H547.557L548.621 222.812C548.773 224.256 548.811 225.852 548.887 227.372C548.963 225.852 549.001 224.256 549.153 222.812L550.179 212.4H556.107V239H552.041V226.84C552.041 224.94 552.079 222.66 552.117 220.532C551.927 222.698 551.737 225.168 551.547 226.84ZM561.087 226.612C563.557 225.548 563.785 225.282 563.785 223.344V221.596C563.785 220.836 563.671 220.57 563.063 220.57H562.835C562.265 220.57 562.151 220.836 562.151 221.596V225.016H558.693V221.216C558.693 218.062 559.453 217.15 562.303 217.15H563.823C566.711 217.15 567.471 218.062 567.471 221.216V236.264C567.471 237.214 567.509 238.05 567.737 239H564.203C564.051 238.734 563.937 238.164 563.861 237.29C563.595 238.506 562.911 239.19 561.429 239.19H560.745C558.959 239.19 558.465 238.354 558.465 236.15V231.096C558.465 228.892 558.883 227.6 561.087 226.612ZM563.785 234.63V228.626L563.329 228.854C562.265 229.386 562.151 229.804 562.151 230.982V234.782C562.151 235.504 562.227 235.77 562.797 235.77H563.025C563.595 235.77 563.785 235.39 563.785 234.63ZM573.612 239H569.926V217.34H573.422V220.038C573.612 218.214 574.334 217.15 575.664 217.15H575.892V221.14H575.588C574.106 221.14 573.612 221.824 573.612 223.762V239ZM581.469 228.854V239H577.783V212.4H581.469V226.726C581.697 225.586 581.887 224.826 582.115 223.838L583.711 217.34H587.245L584.509 227.524L587.397 239H583.559L581.963 231.666C581.773 230.83 581.621 229.956 581.469 228.854ZM594.557 234.744V231.172H598.015V235.124C598.015 238.278 597.255 239.19 594.405 239.19H592.885C589.959 239.19 589.237 238.278 589.237 235.124V221.216C589.237 218.062 589.959 217.15 592.885 217.15H594.405C597.255 217.15 598.015 218.062 598.015 221.216V229.424H592.923V234.744C592.923 235.504 593.037 235.77 593.607 235.77H593.873C594.443 235.77 594.557 235.504 594.557 234.744ZM592.923 221.596V226.194H594.557V221.596C594.557 220.836 594.443 220.57 593.873 220.57H593.607C593.037 220.57 592.923 220.836 592.923 221.596ZM599.866 220.532V217.34H600.74V213.464H604.464V217.34H605.756V220.532H604.464V235.314C604.464 236.682 604.578 237.936 604.996 239H601.158C600.816 238.354 600.74 237.062 600.74 235.732V220.532H599.866ZM541.271 255.216V269.124C541.271 272.278 540.511 273.19 537.623 273.19H535.913C532.987 273.19 532.265 272.278 532.265 269.124V255.216C532.265 252.062 532.987 251.15 535.913 251.15H537.623C540.511 251.15 541.271 252.062 541.271 255.216ZM535.951 255.596V268.744C535.951 269.504 536.065 269.77 536.635 269.77H536.901C537.471 269.77 537.585 269.504 537.585 268.744V255.596C537.585 254.836 537.471 254.57 536.901 254.57H536.635C536.065 254.57 535.951 254.836 535.951 255.596ZM546.841 251.34L547.373 256.812C547.677 259.89 547.905 263.956 548.057 267.87C548.171 263.956 548.437 259.89 548.741 256.812L549.273 251.34H552.617L550.261 273H545.435L543.079 251.34H546.841ZM559.756 268.744V265.172H563.214V269.124C563.214 272.278 562.454 273.19 559.604 273.19H558.084C555.158 273.19 554.436 272.278 554.436 269.124V255.216C554.436 252.062 555.158 251.15 558.084 251.15H559.604C562.454 251.15 563.214 252.062 563.214 255.216V263.424H558.122V268.744C558.122 269.504 558.236 269.77 558.806 269.77H559.072C559.642 269.77 559.756 269.504 559.756 268.744ZM558.122 255.596V260.194H559.756V255.596C559.756 254.836 559.642 254.57 559.072 254.57H558.806C558.236 254.57 558.122 254.836 558.122 255.596ZM569.321 273H565.635V251.34H569.131V254.038C569.321 252.214 570.043 251.15 571.373 251.15H571.601V255.14H571.297C569.815 255.14 569.321 255.824 569.321 257.762V273ZM576.645 251.34L577.177 256.812C577.481 259.89 577.709 263.956 577.861 267.87C577.975 263.956 578.241 259.89 578.545 256.812L579.077 251.34H582.421L580.065 273H575.239L572.883 251.34H576.645ZM588.003 251.34V273H584.317V251.34H588.003ZM584.317 249.82V246.4H588.003V249.82H584.317ZM595.748 268.744V265.172H599.206V269.124C599.206 272.278 598.446 273.19 595.596 273.19H594.076C591.15 273.19 590.428 272.278 590.428 269.124V255.216C590.428 252.062 591.15 251.15 594.076 251.15H595.596C598.446 251.15 599.206 252.062 599.206 255.216V263.424H594.114V268.744C594.114 269.504 594.228 269.77 594.798 269.77H595.064C595.634 269.77 595.748 269.504 595.748 268.744ZM594.114 255.596V260.194H595.748V255.596C595.748 254.836 595.634 254.57 595.064 254.57H594.798C594.228 254.57 594.114 254.836 594.114 255.596ZM608.238 268.288L607.858 273H603.108L601.018 251.34H604.78L605.236 256.736C605.54 260.346 605.692 264.602 605.806 267.528C605.958 264.602 606.186 260.536 606.49 256.926L606.984 251.34H610.708L611.202 256.926C611.506 260.536 611.734 264.602 611.886 267.528C612 264.602 612.114 260.536 612.418 256.926L612.912 251.34H616.256L614.204 273H609.568L609.188 268.288C608.96 265.514 608.77 262.93 608.694 260.194C608.618 262.93 608.466 265.514 608.238 268.288Z" fill="white"/>
<circle cx="435" cy="129" r="111" fill="#006D75"/>
<path d="M385.885 63.26V83.24C385.885 84.275 386.02 84.635 386.83 84.635H387.19C388 84.635 388.09 84.275 388.09 83.24V75.41H392.68V83.825C392.68 88.01 391.69 89.225 387.865 89.225H385.885C382.015 89.225 381.025 88.01 381.025 83.825V62.675C381.025 58.49 382.015 57.275 385.885 57.275H387.865C391.69 57.275 392.68 58.49 392.68 62.675V69.74H388.09V63.26C388.09 62.225 388 61.865 387.19 61.865H386.83C386.02 61.865 385.885 62.225 385.885 63.26ZM406.134 67.94V84.41C406.134 88.145 405.234 89.225 401.814 89.225H399.789C396.324 89.225 395.469 88.145 395.469 84.41V67.94C395.469 64.205 396.324 63.125 399.789 63.125H401.814C405.234 63.125 406.134 64.205 406.134 67.94ZM399.834 68.39V83.96C399.834 84.86 399.969 85.175 400.644 85.175H400.959C401.634 85.175 401.769 84.86 401.769 83.96V68.39C401.769 67.49 401.634 67.175 400.959 67.175H400.644C399.969 67.175 399.834 67.49 399.834 68.39ZM421.459 89V68.345C421.459 67.49 421.369 67.175 420.694 67.175H420.514C419.839 67.175 419.614 67.625 419.614 68.525V89H415.249V68.345C415.249 67.49 415.114 67.175 414.439 67.175H414.259C413.584 67.175 413.359 67.625 413.359 68.525V89H408.994V63.35H413.134V66.005C413.359 64.205 414.169 63.125 416.149 63.125H416.869C418.489 63.125 419.254 63.71 419.479 65.24C419.839 63.89 420.649 63.125 422.359 63.125H423.124C425.239 63.125 425.869 64.115 425.869 66.725V89H421.459ZM435.101 68.345C435.101 67.49 435.011 67.175 434.336 67.175H434.066C433.391 67.175 433.166 67.625 433.166 68.525V83.825C433.166 84.725 433.391 85.175 434.066 85.175H434.336C435.011 85.175 435.101 84.86 435.101 84.005V68.345ZM433.166 93.95H428.801V63.35H432.941V66.005C433.166 64.205 433.976 63.125 435.956 63.125H436.766C438.881 63.125 439.511 64.115 439.511 66.725V85.625C439.511 88.235 438.881 89.225 436.766 89.225H435.956C434.336 89.225 433.526 88.55 433.166 87.335V93.95ZM446.733 89H442.368V57.5H446.733V89ZM455.905 83.96V79.73H460V84.41C460 88.145 459.1 89.225 455.725 89.225H453.925C450.46 89.225 449.605 88.145 449.605 84.41V67.94C449.605 64.205 450.46 63.125 453.925 63.125H455.725C459.1 63.125 460 64.205 460 67.94V77.66H453.97V83.96C453.97 84.86 454.105 85.175 454.78 85.175H455.095C455.77 85.175 455.905 84.86 455.905 83.96ZM453.97 68.39V73.835H455.905V68.39C455.905 67.49 455.77 67.175 455.095 67.175H454.78C454.105 67.175 453.97 67.49 453.97 68.39ZM462.191 67.13V63.35H463.226V58.76H467.636V63.35H469.166V67.13H467.636V84.635C467.636 86.255 467.771 87.74 468.266 89H463.721C463.316 88.235 463.226 86.705 463.226 85.13V67.13H462.191ZM477.589 83.96V79.73H481.684V84.41C481.684 88.145 480.784 89.225 477.409 89.225H475.609C472.144 89.225 471.289 88.145 471.289 84.41V67.94C471.289 64.205 472.144 63.125 475.609 63.125H477.409C480.784 63.125 481.684 64.205 481.684 67.94V77.66H475.654V83.96C475.654 84.86 475.789 85.175 476.464 85.175H476.779C477.454 85.175 477.589 84.86 477.589 83.96ZM475.654 68.39V73.835H477.589V68.39C477.589 67.49 477.454 67.175 476.779 67.175H476.464C475.789 67.175 475.654 67.49 475.654 68.39ZM381.612 117.26V137.24C381.612 138.275 381.747 138.635 382.557 138.635H382.917C383.727 138.635 383.817 138.275 383.817 137.24V129.41H388.407V137.825C388.407 142.01 387.417 143.225 383.592 143.225H381.612C377.742 143.225 376.752 142.01 376.752 137.825V116.675C376.752 112.49 377.742 111.275 381.612 111.275H383.592C387.417 111.275 388.407 112.49 388.407 116.675V123.74H383.817V117.26C383.817 116.225 383.727 115.865 382.917 115.865H382.557C381.747 115.865 381.612 116.225 381.612 117.26ZM395.652 117.35V143H391.287V117.35H395.652ZM391.287 115.55V111.5H395.652V115.55H391.287ZM402.349 117.35L402.979 123.83C403.339 127.475 403.609 132.29 403.789 136.925C403.924 132.29 404.239 127.475 404.599 123.83L405.229 117.35H409.189L406.399 143H400.684L397.894 117.35H402.349ZM415.798 117.35V143H411.433V117.35H415.798ZM411.433 115.55V111.5H415.798V115.55H411.433ZM424.97 137.96V131.975H429.065V138.41C429.065 142.145 428.165 143.225 424.79 143.225H422.99C419.525 143.225 418.67 142.145 418.67 138.41V121.94C418.67 118.205 419.525 117.125 422.99 117.125H424.79C428.165 117.125 429.065 118.205 429.065 121.94V127.925H424.97V122.39C424.97 121.49 424.835 121.175 424.16 121.175H423.845C423.17 121.175 423.035 121.49 423.035 122.39V137.96C423.035 138.86 423.17 139.175 423.845 139.175H424.16C424.835 139.175 424.97 138.86 424.97 137.96ZM444.82 143H439.96V116.045H437.35V111.5H447.43V116.045H444.82V143ZM455.079 137.96V133.73H459.174V138.41C459.174 142.145 458.274 143.225 454.899 143.225H453.099C449.634 143.225 448.779 142.145 448.779 138.41V121.94C448.779 118.205 449.634 117.125 453.099 117.125H454.899C458.274 117.125 459.174 118.205 459.174 121.94V131.66H453.144V137.96C453.144 138.86 453.279 139.175 453.954 139.175H454.269C454.944 139.175 455.079 138.86 455.079 137.96ZM453.144 122.39V127.835H455.079V122.39C455.079 121.49 454.944 121.175 454.269 121.175H453.954C453.279 121.175 453.144 121.49 453.144 122.39ZM468.251 137.96V131.975H472.346V138.41C472.346 142.145 471.446 143.225 468.071 143.225H466.271C462.806 143.225 461.951 142.145 461.951 138.41V121.94C461.951 118.205 462.806 117.125 466.271 117.125H468.071C471.446 117.125 472.346 118.205 472.346 121.94V127.925H468.251V122.39C468.251 121.49 468.116 121.175 467.441 121.175H467.126C466.451 121.175 466.316 121.49 466.316 122.39V137.96C466.316 138.86 466.451 139.175 467.126 139.175H467.441C468.116 139.175 468.251 138.86 468.251 137.96ZM481.468 143V122.345C481.468 121.49 481.378 121.175 480.703 121.175H480.433C479.758 121.175 479.533 121.625 479.533 122.525V143H475.168V111.5H479.533V119.015C479.893 117.8 480.703 117.125 482.323 117.125H483.133C485.248 117.125 485.878 118.115 485.878 120.725V143H481.468ZM408.299 183.77V179.135H413.969V191.825C413.969 196.01 412.979 197.225 409.154 197.225H407.174C403.304 197.225 402.314 196.01 402.314 191.825V170.675C402.314 166.49 403.304 165.275 407.174 165.275H409.154C412.979 165.275 413.969 166.49 413.969 170.675V177.2H409.379V171.26C409.379 170.225 409.289 169.865 408.479 169.865H408.119C407.309 169.865 407.174 170.225 407.174 171.26V191.24C407.174 192.275 407.309 192.635 408.119 192.635H408.479C409.289 192.635 409.379 192.275 409.379 191.24V183.77H408.299ZM427.557 193.76C427.557 194.885 427.602 195.875 427.872 197H423.687C423.507 196.685 423.372 196.01 423.282 194.975C422.967 196.415 422.157 197.225 420.402 197.225H419.592C417.477 197.225 416.847 196.235 416.847 193.625V171.35H421.257V192.005C421.257 192.86 421.347 193.175 422.022 193.175H422.292C422.967 193.175 423.192 192.725 423.192 191.825V171.35H427.557V193.76ZM434.912 171.35V197H430.547V171.35H434.912ZM430.547 169.55V165.5H434.912V169.55H430.547ZM444.083 191.825V176.525C444.083 175.625 443.858 175.175 443.183 175.175H442.958C442.283 175.175 442.148 175.49 442.148 176.345V192.005C442.148 192.86 442.283 193.175 442.958 193.175H443.183C443.858 193.175 444.083 192.725 444.083 191.825ZM448.448 193.76C448.448 194.885 448.493 195.875 448.808 197H444.623C444.398 196.685 444.263 195.965 444.218 194.885C443.903 196.37 443.093 197.225 441.293 197.225H440.483C438.413 197.225 437.783 196.235 437.783 193.625V174.725C437.783 172.115 438.413 171.125 440.483 171.125H441.293C442.868 171.125 443.678 171.8 444.083 172.97V165.5H448.448V193.76ZM457.65 191.96V187.73H461.745V192.41C461.745 196.145 460.845 197.225 457.47 197.225H455.67C452.205 197.225 451.35 196.145 451.35 192.41V175.94C451.35 172.205 452.205 171.125 455.67 171.125H457.47C460.845 171.125 461.745 172.205 461.745 175.94V185.66H455.715V191.96C455.715 192.86 455.85 193.175 456.525 193.175H456.84C457.515 193.175 457.65 192.86 457.65 191.96ZM455.715 176.39V181.835H457.65V176.39C457.65 175.49 457.515 175.175 456.84 175.175H456.525C455.85 175.175 455.715 175.49 455.715 176.39Z" fill="white"/>
<circle cx="72" cy="251" r="72" fill="#E22119"/>
<path d="M67.0275 245.19H65.2035C62.2395 245.19 61.4415 244.24 61.4415 240.972V234.892C61.4415 232.574 61.8595 231.396 63.1895 230.94C61.8595 230.484 61.4415 229.306 61.4415 226.95V222.428C61.4415 219.16 62.2395 218.21 65.2035 218.21H67.0275C69.9915 218.21 70.8275 219.16 70.8275 222.428V226.95C70.8275 229.306 70.3715 230.484 69.0035 230.94C70.3715 231.396 70.8275 232.574 70.8275 234.892V240.972C70.8275 244.24 69.9915 245.19 67.0275 245.19ZM66.9895 240.478V233.828C66.9895 232.992 66.8755 232.726 66.2675 232.726H66.0015C65.3555 232.726 65.2795 232.992 65.2795 233.828V240.478C65.2795 241.276 65.3555 241.58 66.0015 241.58H66.2675C66.8755 241.58 66.9895 241.276 66.9895 240.478ZM66.9895 228.014V222.922C66.9895 222.124 66.8755 221.82 66.2675 221.82H66.0015C65.3555 221.82 65.2795 222.124 65.2795 222.922V228.014C65.2795 228.812 65.3555 229.116 66.0015 229.116H66.2675C66.8755 229.116 66.9895 228.812 66.9895 228.014ZM82.4712 222.428V240.972C82.4712 244.24 81.6352 245.19 78.6712 245.19H76.8472C73.8452 245.19 73.0852 244.24 73.0852 240.972V222.428C73.0852 219.16 73.8452 218.21 76.8472 218.21H78.6712C81.6352 218.21 82.4712 219.16 82.4712 222.428ZM76.9232 222.922V240.478C76.9232 241.276 76.9992 241.58 77.6452 241.58H77.9112C78.5572 241.58 78.6332 241.276 78.6332 240.478V222.922C78.6332 222.124 78.5572 221.82 77.9112 221.82H77.6452C76.9992 221.82 76.9232 222.124 76.9232 222.922ZM49.1826 260.532V257.34H50.0566V253.464H53.7806V257.34H55.0726V260.532H53.7806V275.314C53.7806 276.682 53.8946 277.936 54.3126 279H50.4746C50.1326 278.354 50.0566 277.062 50.0566 275.732V260.532H49.1826ZM65.8715 261.216V275.124C65.8715 278.278 65.1115 279.19 62.2235 279.19H60.5135C57.5875 279.19 56.8655 278.278 56.8655 275.124V261.216C56.8655 258.062 57.5875 257.15 60.5135 257.15H62.2235C65.1115 257.15 65.8715 258.062 65.8715 261.216ZM60.5515 261.596V274.744C60.5515 275.504 60.6655 275.77 61.2355 275.77H61.5015C62.0715 275.77 62.1855 275.504 62.1855 274.744V261.596C62.1855 260.836 62.0715 260.57 61.5015 260.57H61.2355C60.6655 260.57 60.5515 260.836 60.5515 261.596ZM77.2165 261.216V275.124C77.2165 278.278 76.4565 279.19 73.5685 279.19H71.8585C68.9325 279.19 68.2105 278.278 68.2105 275.124V261.216C68.2105 258.062 68.9325 257.15 71.8585 257.15H73.5685C76.4565 257.15 77.2165 258.062 77.2165 261.216ZM71.8965 261.596V274.744C71.8965 275.504 72.0105 275.77 72.5805 275.77H72.8465C73.4165 275.77 73.5305 275.504 73.5305 274.744V261.596C73.5305 260.836 73.4165 260.57 72.8465 260.57H72.5805C72.0105 260.57 71.8965 260.836 71.8965 261.596ZM83.3176 279H79.6316V252.4H83.3176V279ZM90.7585 274.744V272.236C90.7585 270.982 90.3025 270.488 88.5165 269.196C86.2365 267.448 85.6285 266.346 85.6285 263.572V261.216C85.6285 258.062 86.3885 257.15 89.2765 257.15H90.7585C93.6465 257.15 94.4445 258.062 94.4445 261.216V265.016H90.9485V261.596C90.9485 260.836 90.8725 260.57 90.2645 260.57H90.0365C89.4285 260.57 89.3145 260.836 89.3145 261.596V263.724C89.3145 264.978 89.7705 265.472 91.5565 266.764C93.8365 268.474 94.4445 269.614 94.4445 272.388V275.124C94.4445 278.278 93.6465 279.19 90.7585 279.19H89.2765C86.3885 279.19 85.6285 278.278 85.6285 275.124V270.944H89.1245V274.744C89.1245 275.504 89.2005 275.77 89.8085 275.77H90.0365C90.6445 275.77 90.7585 275.504 90.7585 274.744Z" fill="white"/>
<circle cx="130" cy="122" r="72" fill="#E22119"/>
<path d="M123.459 116H119.621V91.3C120.533 91.3 121.635 90.236 121.635 89.4H123.459V116ZM135.337 93.428V111.972C135.337 115.24 134.501 116.19 131.537 116.19H129.713C126.711 116.19 125.951 115.24 125.951 111.972V93.428C125.951 90.16 126.711 89.21 129.713 89.21H131.537C134.501 89.21 135.337 90.16 135.337 93.428ZM129.789 93.922V111.478C129.789 112.276 129.865 112.58 130.511 112.58H130.777C131.423 112.58 131.499 112.276 131.499 111.478V93.922C131.499 93.124 131.423 92.82 130.777 92.82H130.511C129.865 92.82 129.789 93.124 129.789 93.922ZM85.1912 128.34V150H81.5052V128.34H85.1912ZM81.5052 126.82V123.4H85.1912V126.82H81.5052ZM96.736 150H93.012V132.558C93.012 131.836 92.936 131.57 92.366 131.57H92.138C91.568 131.57 91.378 131.95 91.378 132.71V150H87.692V128.34H91.188V130.582C91.378 129.062 92.062 128.15 93.734 128.15H94.418C96.204 128.15 96.736 128.986 96.736 131.19V150ZM98.6527 131.532V128.34H99.5267V124.464H103.251V128.34H104.543V131.532H103.251V146.314C103.251 147.682 103.365 148.936 103.783 150H99.9447C99.6027 149.354 99.5267 148.062 99.5267 146.732V131.532H98.6527ZM111.656 145.744V142.172H115.114V146.124C115.114 149.278 114.354 150.19 111.504 150.19H109.984C107.058 150.19 106.336 149.278 106.336 146.124V132.216C106.336 129.062 107.058 128.15 109.984 128.15H111.504C114.354 128.15 115.114 129.062 115.114 132.216V140.424H110.022V145.744C110.022 146.504 110.136 146.77 110.706 146.77H110.972C111.542 146.77 111.656 146.504 111.656 145.744ZM110.022 132.596V137.194H111.656V132.596C111.656 131.836 111.542 131.57 110.972 131.57H110.706C110.136 131.57 110.022 131.836 110.022 132.596ZM121.22 150H117.534V128.34H121.03V131.038C121.22 129.214 121.942 128.15 123.272 128.15H123.5V132.14H123.196C121.714 132.14 121.22 132.824 121.22 134.762V150ZM128.545 128.34L129.077 133.812C129.381 136.89 129.609 140.956 129.761 144.87C129.875 140.956 130.141 136.89 130.445 133.812L130.977 128.34H134.321L131.965 150H127.139L124.783 128.34H128.545ZM139.902 128.34V150H136.216V128.34H139.902ZM136.216 126.82V123.4H139.902V126.82H136.216ZM147.647 145.744V142.172H151.105V146.124C151.105 149.278 150.345 150.19 147.495 150.19H145.975C143.049 150.19 142.327 149.278 142.327 146.124V132.216C142.327 129.062 143.049 128.15 145.975 128.15H147.495C150.345 128.15 151.105 129.062 151.105 132.216V140.424H146.013V145.744C146.013 146.504 146.127 146.77 146.697 146.77H146.963C147.533 146.77 147.647 146.504 147.647 145.744ZM146.013 132.596V137.194H147.647V132.596C147.647 131.836 147.533 131.57 146.963 131.57H146.697C146.127 131.57 146.013 131.836 146.013 132.596ZM160.138 145.288L159.758 150H155.008L152.918 128.34H156.68L157.136 133.736C157.44 137.346 157.592 141.602 157.706 144.528C157.858 141.602 158.086 137.536 158.39 133.926L158.884 128.34H162.608L163.102 133.926C163.406 137.536 163.634 141.602 163.786 144.528C163.9 141.602 164.014 137.536 164.318 133.926L164.812 128.34H168.156L166.104 150H161.468L161.088 145.288C160.86 142.514 160.67 139.93 160.594 137.194C160.518 139.93 160.366 142.514 160.138 145.288ZM175.006 145.744V143.236C175.006 141.982 174.55 141.488 172.764 140.196C170.484 138.448 169.876 137.346 169.876 134.572V132.216C169.876 129.062 170.636 128.15 173.524 128.15H175.006C177.894 128.15 178.692 129.062 178.692 132.216V136.016H175.196V132.596C175.196 131.836 175.12 131.57 174.512 131.57H174.284C173.676 131.57 173.562 131.836 173.562 132.596V134.724C173.562 135.978 174.018 136.472 175.804 137.764C178.084 139.474 178.692 140.614 178.692 143.388V146.124C178.692 149.278 177.894 150.19 175.006 150.19H173.524C170.636 150.19 169.876 149.278 169.876 146.124V141.944H173.372V145.744C173.372 146.504 173.448 146.77 174.056 146.77H174.284C174.892 146.77 175.006 146.504 175.006 145.744Z" fill="white"/>
<circle cx="262" cy="72" r="72" fill="#E22119"/>
<path d="M239.547 38.84L238.217 51H235.215L233.885 38.84C233.695 37.168 233.505 34.698 233.315 32.57C233.353 34.66 233.391 36.94 233.391 38.84V51H229.819V24.4H235.557L236.621 34.812C236.773 36.256 236.811 37.852 236.887 39.372C236.963 37.852 237.001 36.256 237.153 34.812L238.179 24.4H244.107V51H240.041V38.84C240.041 36.94 240.079 34.66 240.117 32.532C239.927 34.698 239.737 37.168 239.547 38.84ZM249.087 38.612C251.557 37.548 251.785 37.282 251.785 35.344V33.596C251.785 32.836 251.671 32.57 251.063 32.57H250.835C250.265 32.57 250.151 32.836 250.151 33.596V37.016H246.693V33.216C246.693 30.062 247.453 29.15 250.303 29.15H251.823C254.711 29.15 255.471 30.062 255.471 33.216V48.264C255.471 49.214 255.509 50.05 255.737 51H252.203C252.051 50.734 251.937 50.164 251.861 49.29C251.595 50.506 250.911 51.19 249.429 51.19H248.745C246.959 51.19 246.465 50.354 246.465 48.15V43.096C246.465 40.892 246.883 39.6 249.087 38.612ZM251.785 46.63V40.626L251.329 40.854C250.265 41.386 250.151 41.804 250.151 42.982V46.782C250.151 47.504 250.227 47.77 250.797 47.77H251.025C251.595 47.77 251.785 47.39 251.785 46.63ZM261.612 51H257.926V29.34H261.422V32.038C261.612 30.214 262.334 29.15 263.664 29.15H263.892V33.14H263.588C262.106 33.14 261.612 33.824 261.612 35.762V51ZM269.469 40.854V51H265.783V24.4H269.469V38.726C269.697 37.586 269.887 36.826 270.115 35.838L271.711 29.34H275.245L272.509 39.524L275.397 51H271.559L269.963 43.666C269.773 42.83 269.621 41.956 269.469 40.854ZM282.557 46.744V43.172H286.015V47.124C286.015 50.278 285.255 51.19 282.405 51.19H280.885C277.959 51.19 277.237 50.278 277.237 47.124V33.216C277.237 30.062 277.959 29.15 280.885 29.15H282.405C285.255 29.15 286.015 30.062 286.015 33.216V41.424H280.923V46.744C280.923 47.504 281.037 47.77 281.607 47.77H281.873C282.443 47.77 282.557 47.504 282.557 46.744ZM280.923 33.596V38.194H282.557V33.596C282.557 32.836 282.443 32.57 281.873 32.57H281.607C281.037 32.57 280.923 32.836 280.923 33.596ZM287.866 32.532V29.34H288.74V25.464H292.464V29.34H293.756V32.532H292.464V47.314C292.464 48.682 292.578 49.936 292.996 51H289.158C288.816 50.354 288.74 49.062 288.74 47.732V32.532H287.866ZM216.225 66.532V63.34H217.099V59.464H220.823V63.34H222.115V66.532H220.823V81.314C220.823 82.682 220.937 83.936 221.355 85H217.517C217.175 84.354 217.099 83.062 217.099 81.732V66.532H216.225ZM227.669 85H223.983V63.34H227.479V66.038C227.669 64.214 228.391 63.15 229.721 63.15H229.949V67.14H229.645C228.163 67.14 227.669 67.824 227.669 69.762V85ZM237.084 80.744V77.172H240.542V81.124C240.542 84.278 239.782 85.19 236.932 85.19H235.412C232.486 85.19 231.764 84.278 231.764 81.124V67.216C231.764 64.062 232.486 63.15 235.412 63.15H236.932C239.782 63.15 240.542 64.062 240.542 67.216V75.424H235.45V80.744C235.45 81.504 235.564 81.77 236.134 81.77H236.4C236.97 81.77 237.084 81.504 237.084 80.744ZM235.45 67.596V72.194H237.084V67.596C237.084 66.836 236.97 66.57 236.4 66.57H236.134C235.564 66.57 235.45 66.836 235.45 67.596ZM252.007 85H248.283V67.558C248.283 66.836 248.207 66.57 247.637 66.57H247.409C246.839 66.57 246.649 66.95 246.649 67.71V85H242.963V63.34H246.459V65.582C246.649 64.062 247.333 63.15 249.005 63.15H249.689C251.475 63.15 252.007 63.986 252.007 66.19V85ZM259.737 80.63V67.71C259.737 66.95 259.547 66.57 258.977 66.57H258.787C258.217 66.57 258.103 66.836 258.103 67.558V80.782C258.103 81.504 258.217 81.77 258.787 81.77H258.977C259.547 81.77 259.737 81.39 259.737 80.63ZM263.423 82.264C263.423 83.214 263.461 84.05 263.727 85H260.193C260.003 84.734 259.889 84.126 259.851 83.214C259.585 84.468 258.901 85.19 257.381 85.19H256.697C254.949 85.19 254.417 84.354 254.417 82.15V66.19C254.417 63.986 254.949 63.15 256.697 63.15H257.381C258.711 63.15 259.395 63.72 259.737 64.708V58.4H263.423V82.264ZM270.89 80.744V78.236C270.89 76.982 270.434 76.488 268.648 75.196C266.368 73.448 265.76 72.346 265.76 69.572V67.216C265.76 64.062 266.52 63.15 269.408 63.15H270.89C273.778 63.15 274.576 64.062 274.576 67.216V71.016H271.08V67.596C271.08 66.836 271.004 66.57 270.396 66.57H270.168C269.56 66.57 269.446 66.836 269.446 67.596V69.724C269.446 70.978 269.902 71.472 271.688 72.764C273.968 74.474 274.576 75.614 274.576 78.388V81.124C274.576 84.278 273.778 85.19 270.89 85.19H269.408C266.52 85.19 265.76 84.278 265.76 81.124V76.944H269.256V80.744C269.256 81.504 269.332 81.77 269.94 81.77H270.168C270.776 81.77 270.89 81.504 270.89 80.744ZM281.576 66.532V63.34H282.45V62.428C282.45 59.312 283.21 58.4 286.098 58.4H287.504V61.364H286.934C286.326 61.364 286.098 61.516 286.098 62.39V63.34H287.504V66.532H286.174V85H282.45V66.532H281.576ZM298.302 67.216V81.124C298.302 84.278 297.542 85.19 294.654 85.19H292.944C290.018 85.19 289.296 84.278 289.296 81.124V67.216C289.296 64.062 290.018 63.15 292.944 63.15H294.654C297.542 63.15 298.302 64.062 298.302 67.216ZM292.982 67.596V80.744C292.982 81.504 293.096 81.77 293.666 81.77H293.932C294.502 81.77 294.616 81.504 294.616 80.744V67.596C294.616 66.836 294.502 66.57 293.932 66.57H293.666C293.096 66.57 292.982 66.836 292.982 67.596ZM304.403 85H300.717V63.34H304.213V66.038C304.403 64.214 305.125 63.15 306.455 63.15H306.683V67.14H306.379C304.897 67.14 304.403 67.824 304.403 69.762V85ZM245.59 99.43V96.922C245.59 96.124 245.514 95.82 244.868 95.82H244.602C243.994 95.82 243.88 96.124 243.88 96.922V102.204H240.27V96.428C240.27 93.16 241.03 92.21 244.032 92.21H245.666C248.63 92.21 249.428 93.16 249.428 96.428V99.392C249.428 103.42 248.63 104.826 246.16 108.322C244.374 110.792 243.728 111.97 243.728 114.896V115.428H249.39V119H239.89V114.934C239.89 110.944 240.688 109.538 243.158 106.042C244.944 103.534 245.59 102.356 245.59 99.43ZM260.996 96.428V114.972C260.996 118.24 260.16 119.19 257.196 119.19H255.372C252.37 119.19 251.61 118.24 251.61 114.972V96.428C251.61 93.16 252.37 92.21 255.372 92.21H257.196C260.16 92.21 260.996 93.16 260.996 96.428ZM255.448 96.922V114.478C255.448 115.276 255.524 115.58 256.17 115.58H256.436C257.082 115.58 257.158 115.276 257.158 114.478V96.922C257.158 96.124 257.082 95.82 256.436 95.82H256.17C255.524 95.82 255.448 96.124 255.448 96.922ZM268.874 99.43V96.922C268.874 96.124 268.798 95.82 268.152 95.82H267.886C267.278 95.82 267.164 96.124 267.164 96.922V102.204H263.554V96.428C263.554 93.16 264.314 92.21 267.316 92.21H268.95C271.914 92.21 272.712 93.16 272.712 96.428V99.392C272.712 103.42 271.914 104.826 269.444 108.322C267.658 110.792 267.012 111.97 267.012 114.896V115.428H272.674V119H263.174V114.934C263.174 110.944 263.972 109.538 266.442 106.042C268.228 103.534 268.874 102.356 268.874 99.43ZM280.214 114.478V103.42C280.214 102.622 280.138 102.356 279.53 102.356H279.264C278.694 102.356 278.504 102.736 278.504 103.572V106.802H274.894V92.4H283.558V95.972H278.504V100.494C278.808 99.468 279.53 98.86 280.936 98.86H281.734C283.558 98.86 284.052 99.734 284.052 101.976V114.972C284.052 118.24 283.254 119.19 280.29 119.19H278.656C275.654 119.19 274.894 118.24 274.894 114.972V108.36H278.504V114.478C278.504 115.276 278.58 115.58 279.226 115.58H279.492C280.138 115.58 280.214 115.276 280.214 114.478Z" fill="white"/>
<circle cx="253" cy="255" r="111" fill="#E22119"/>
<path d="M193.433 219V187.5H198.293V219H193.433ZM212.127 219H207.717V198.345C207.717 197.49 207.627 197.175 206.952 197.175H206.682C206.007 197.175 205.782 197.625 205.782 198.525V219H201.417V193.35H205.557V196.005C205.782 194.205 206.592 193.125 208.572 193.125H209.382C211.497 193.125 212.127 194.115 212.127 196.725V219ZM214.396 197.13V193.35H215.431V188.76H219.841V193.35H221.371V197.13H219.841V214.635C219.841 216.255 219.976 217.74 220.471 219H215.926C215.521 218.235 215.431 216.705 215.431 215.13V197.13H214.396ZM229.794 213.96V209.73H233.889V214.41C233.889 218.145 232.989 219.225 229.614 219.225H227.814C224.349 219.225 223.494 218.145 223.494 214.41V197.94C223.494 194.205 224.349 193.125 227.814 193.125H229.614C232.989 193.125 233.889 194.205 233.889 197.94V207.66H227.859V213.96C227.859 214.86 227.994 215.175 228.669 215.175H228.984C229.659 215.175 229.794 214.86 229.794 213.96ZM227.859 198.39V203.835H229.794V198.39C229.794 197.49 229.659 197.175 228.984 197.175H228.669C227.994 197.175 227.859 197.49 227.859 198.39ZM241.121 219H236.756V193.35H240.896V196.545C241.121 194.385 241.976 193.125 243.551 193.125H243.821V197.85H243.461C241.706 197.85 241.121 198.66 241.121 200.955V219ZM248.852 204.33C251.777 203.07 252.047 202.755 252.047 200.46V198.39C252.047 197.49 251.912 197.175 251.192 197.175H250.922C250.247 197.175 250.112 197.49 250.112 198.39V202.44H246.017V197.94C246.017 194.205 246.917 193.125 250.292 193.125H252.092C255.512 193.125 256.412 194.205 256.412 197.94V215.76C256.412 216.885 256.457 217.875 256.727 219H252.542C252.362 218.685 252.227 218.01 252.137 216.975C251.822 218.415 251.012 219.225 249.257 219.225H248.447C246.332 219.225 245.747 218.235 245.747 215.625V209.64C245.747 207.03 246.242 205.5 248.852 204.33ZM252.047 213.825V206.715L251.507 206.985C250.247 207.615 250.112 208.11 250.112 209.505V214.005C250.112 214.86 250.202 215.175 250.877 215.175H251.147C251.822 215.175 252.047 214.725 252.047 213.825ZM265.529 213.96V207.975H269.624V214.41C269.624 218.145 268.724 219.225 265.349 219.225H263.549C260.084 219.225 259.229 218.145 259.229 214.41V197.94C259.229 194.205 260.084 193.125 263.549 193.125H265.349C268.724 193.125 269.624 194.205 269.624 197.94V203.925H265.529V198.39C265.529 197.49 265.394 197.175 264.719 197.175H264.404C263.729 197.175 263.594 197.49 263.594 198.39V213.96C263.594 214.86 263.729 215.175 264.404 215.175H264.719C265.394 215.175 265.529 214.86 265.529 213.96ZM271.771 197.13V193.35H272.806V188.76H277.216V193.35H278.746V197.13H277.216V214.635C277.216 216.255 277.351 217.74 277.846 219H273.301C272.896 218.235 272.806 216.705 272.806 215.13V197.13H271.771ZM285.324 193.35V219H280.959V193.35H285.324ZM280.959 191.55V187.5H285.324V191.55H280.959ZM292.021 193.35L292.651 199.83C293.011 203.475 293.281 208.29 293.461 212.925C293.596 208.29 293.911 203.475 294.271 199.83L294.901 193.35H298.861L296.071 219H290.356L287.566 193.35H292.021ZM307.316 213.96V209.73H311.411V214.41C311.411 218.145 310.511 219.225 307.136 219.225H305.336C301.871 219.225 301.016 218.145 301.016 214.41V197.94C301.016 194.205 301.871 193.125 305.336 193.125H307.136C310.511 193.125 311.411 194.205 311.411 197.94V207.66H305.381V213.96C305.381 214.86 305.516 215.175 306.191 215.175H306.506C307.181 215.175 307.316 214.86 307.316 213.96ZM305.381 198.39V203.835H307.316V198.39C307.316 197.49 307.181 197.175 306.506 197.175H306.191C305.516 197.175 305.381 197.49 305.381 198.39ZM230.101 251.94V268.41C230.101 272.145 229.201 273.225 225.781 273.225H223.756C220.291 273.225 219.436 272.145 219.436 268.41V251.94C219.436 248.205 220.291 247.125 223.756 247.125H225.781C229.201 247.125 230.101 248.205 230.101 251.94ZM223.801 252.39V267.96C223.801 268.86 223.936 269.175 224.611 269.175H224.926C225.601 269.175 225.736 268.86 225.736 267.96V252.39C225.736 251.49 225.601 251.175 224.926 251.175H224.611C223.936 251.175 223.801 251.49 223.801 252.39ZM243.671 273H239.261V252.345C239.261 251.49 239.171 251.175 238.496 251.175H238.226C237.551 251.175 237.326 251.625 237.326 252.525V273H232.961V247.35H237.101V250.005C237.326 248.205 238.136 247.125 240.116 247.125H240.926C243.041 247.125 243.671 248.115 243.671 250.725V273ZM250.98 273H246.615V241.5H250.98V273ZM258.307 247.35V273H253.942V247.35H258.307ZM253.942 245.55V241.5H258.307V245.55H253.942ZM271.978 273H267.568V252.345C267.568 251.49 267.478 251.175 266.803 251.175H266.533C265.858 251.175 265.633 251.625 265.633 252.525V273H261.268V247.35H265.408V250.005C265.633 248.205 266.443 247.125 268.423 247.125H269.233C271.348 247.125 271.978 248.115 271.978 250.725V273ZM281.133 267.96V263.73H285.228V268.41C285.228 272.145 284.328 273.225 280.953 273.225H279.153C275.688 273.225 274.833 272.145 274.833 268.41V251.94C274.833 248.205 275.688 247.125 279.153 247.125H280.953C284.328 247.125 285.228 248.205 285.228 251.94V261.66H279.198V267.96C279.198 268.86 279.333 269.175 280.008 269.175H280.323C280.998 269.175 281.133 268.86 281.133 267.96ZM279.198 252.39V257.835H281.133V252.39C281.133 251.49 280.998 251.175 280.323 251.175H280.008C279.333 251.175 279.198 251.49 279.198 252.39ZM213.857 306.345C213.857 305.49 213.767 305.175 213.092 305.175H212.822C212.147 305.175 211.922 305.625 211.922 306.525V321.825C211.922 322.725 212.147 323.175 212.822 323.175H213.092C213.767 323.175 213.857 322.86 213.857 322.005V306.345ZM211.922 331.95H207.557V301.35H211.697V304.005C211.922 302.205 212.732 301.125 214.712 301.125H215.522C217.637 301.125 218.267 302.115 218.267 304.725V323.625C218.267 326.235 217.637 327.225 215.522 327.225H214.712C213.092 327.225 212.282 326.55 211.922 325.335V331.95ZM225.488 327H221.123V295.5H225.488V327ZM231.33 312.33C234.255 311.07 234.525 310.755 234.525 308.46V306.39C234.525 305.49 234.39 305.175 233.67 305.175H233.4C232.725 305.175 232.59 305.49 232.59 306.39V310.44H228.495V305.94C228.495 302.205 229.395 301.125 232.77 301.125H234.57C237.99 301.125 238.89 302.205 238.89 305.94V323.76C238.89 324.885 238.935 325.875 239.205 327H235.02C234.84 326.685 234.705 326.01 234.615 324.975C234.3 326.415 233.49 327.225 231.735 327.225H230.925C228.81 327.225 228.225 326.235 228.225 323.625V317.64C228.225 315.03 228.72 313.5 231.33 312.33ZM234.525 321.825V314.715L233.985 314.985C232.725 315.615 232.59 316.11 232.59 317.505V322.005C232.59 322.86 232.68 323.175 233.355 323.175H233.625C234.3 323.175 234.525 322.725 234.525 321.825ZM241.122 305.13V301.35H242.157V296.76H246.567V301.35H248.097V305.13H246.567V322.635C246.567 324.255 246.702 325.74 247.197 327H242.652C242.247 326.235 242.157 324.705 242.157 323.13V305.13H241.122ZM249.635 305.13V301.35H250.67V300.27C250.67 296.58 251.57 295.5 254.99 295.5H256.655V299.01H255.98C255.26 299.01 254.99 299.19 254.99 300.225V301.35H256.655V305.13H255.08V327H250.67V305.13H249.635ZM269.442 305.94V322.41C269.442 326.145 268.542 327.225 265.122 327.225H263.097C259.632 327.225 258.777 326.145 258.777 322.41V305.94C258.777 302.205 259.632 301.125 263.097 301.125H265.122C268.542 301.125 269.442 302.205 269.442 305.94ZM263.142 306.39V321.96C263.142 322.86 263.277 323.175 263.952 323.175H264.267C264.942 323.175 265.077 322.86 265.077 321.96V306.39C265.077 305.49 264.942 305.175 264.267 305.175H263.952C263.277 305.175 263.142 305.49 263.142 306.39ZM276.667 327H272.302V301.35H276.442V304.545C276.667 302.385 277.522 301.125 279.097 301.125H279.367V305.85H279.007C277.252 305.85 276.667 306.66 276.667 308.955V327ZM294.071 327V306.345C294.071 305.49 293.981 305.175 293.306 305.175H293.126C292.451 305.175 292.226 305.625 292.226 306.525V327H287.861V306.345C287.861 305.49 287.726 305.175 287.051 305.175H286.871C286.196 305.175 285.971 305.625 285.971 306.525V327H281.606V301.35H285.746V304.005C285.971 302.205 286.781 301.125 288.761 301.125H289.481C291.101 301.125 291.866 301.71 292.091 303.24C292.451 301.89 293.261 301.125 294.971 301.125H295.736C297.851 301.125 298.481 302.115 298.481 304.725V327H294.071Z" fill="white"/>
</svg>
