<?xml version="1.0" encoding="utf-8"?>
<!-- Generator: Adobe Illustrator 16.0.0, SVG Export Plug-In . SVG Version: 6.00 Build 0)  -->
<!DOCTYPE svg PUBLIC "-//W3C//DTD SVG 1.1//EN" "http://www.w3.org/Graphics/SVG/1.1/DTD/svg11.dtd">
<svg version="1.1" id="Vrstva_1" xmlns="http://www.w3.org/2000/svg" xmlns:xlink="http://www.w3.org/1999/xlink" x="0px" y="0px"
	 width="34.02px" height="34.02px" viewBox="0 0 34.02 34.02" enable-background="new 0 0 34.02 34.02" xml:space="preserve">
<g>
	<path d="M30.522,19.588H3.494V3.396h27.028V19.588z M4.694,18.389h24.628V4.595H4.694V18.389z"/>
	<g>
		<path d="M10.93,11.853c-1.313,0-2.383-1.069-2.383-2.383c0-1.314,1.069-2.383,2.383-2.383c1.314,0,2.384,1.068,2.384,2.383
			C13.313,10.784,12.244,11.853,10.93,11.853z M10.93,8.286c-0.652,0-1.183,0.531-1.183,1.184c0,0.652,0.53,1.183,1.183,1.183
			s1.184-0.531,1.184-1.183C12.113,8.817,11.582,8.286,10.93,8.286z"/>
		<path d="M14.932,16.046H6.929v-1.393c0-2.206,1.795-4.001,4.001-4.001c2.207,0,4.002,1.795,4.002,4.001V16.046z M8.129,14.846
			h5.603v-0.192c0-1.544-1.257-2.801-2.802-2.801s-2.801,1.257-2.801,2.801V14.846z"/>
	</g>
	<g>
		<path d="M23.35,11.853c-1.314,0-2.384-1.069-2.384-2.383c0-1.314,1.069-2.383,2.384-2.383c1.313,0,2.383,1.068,2.383,2.383
			C25.732,10.784,24.663,11.853,23.35,11.853z M23.35,8.286c-0.652,0-1.184,0.531-1.184,1.184c0,0.652,0.531,1.183,1.184,1.183
			s1.183-0.531,1.183-1.183C24.532,8.817,24.002,8.286,23.35,8.286z"/>
		<path d="M27.352,16.046h-8.004v-1.393c0-2.206,1.795-4.001,4.002-4.001c2.206,0,4.002,1.795,4.002,4.001V16.046z M20.548,14.846
			h5.604v-0.192c0-1.544-1.257-2.801-2.802-2.801s-2.802,1.257-2.802,2.801V14.846z"/>
	</g>
	<path d="M16.707,26.422c-1.314,0-2.384-1.068-2.384-2.383s1.069-2.383,2.384-2.383c1.313,0,2.383,1.068,2.383,2.383
		S18.021,26.422,16.707,26.422z M16.707,22.855c-0.652,0-1.184,0.531-1.184,1.184s0.531,1.184,1.184,1.184s1.183-0.531,1.183-1.184
		S17.359,22.855,16.707,22.855z"/>
	<path d="M20.708,30.615h-8.003v-1.391c0-2.207,1.795-4.002,4.002-4.002c2.206,0,4.001,1.795,4.001,4.002V30.615z M13.905,29.416
		h5.603v-0.191c0-1.545-1.256-2.803-2.801-2.803s-2.802,1.258-2.802,2.803V29.416z"/>
</g>
</svg>
