<svg width="37" height="38" viewBox="0 0 37 38" fill="none" xmlns="http://www.w3.org/2000/svg">
<path d="M36.6785 19.0425C36.6764 17.0641 36.2041 15.1305 35.3207 13.4843C34.4373 11.8382 33.1822 10.5528 31.7129 9.78957V9.01849C31.7119 7.0836 31.1783 5.20733 30.2008 3.70098C29.2233 2.19462 27.8605 1.14875 26.3387 0.736879C24.8169 0.325011 23.2275 0.571909 21.8341 1.43661C20.4408 2.30131 19.3273 3.73183 18.6785 5.49082C18.0296 3.73183 16.9161 2.30131 15.5228 1.43661C14.1295 0.571909 12.54 0.325011 11.0182 0.736879C9.4964 1.14875 8.13367 2.19462 7.15614 3.70098C6.17862 5.20733 5.64506 7.0836 5.64398 9.01849V9.78957C4.17351 10.5507 2.91729 11.8356 2.03365 13.4822C1.15 15.1288 0.678467 17.0635 0.678467 19.0425C0.678467 21.0215 1.15 22.9562 2.03365 24.6028C2.91729 26.2494 4.17351 27.5342 5.64398 28.2954V29.0665C5.64506 31.0014 6.17862 32.8776 7.15614 34.384C8.13367 35.8903 9.4964 36.9362 11.0182 37.3481C12.54 37.76 14.1295 37.5131 15.5228 36.6484C16.9161 35.7837 18.0296 34.3531 18.6785 32.5941C19.3273 34.3531 20.4408 35.7837 21.8341 36.6484C23.2275 37.5131 24.8169 37.76 26.3387 37.3481C27.8605 36.9362 29.2233 35.8903 30.2008 34.384C31.1783 32.8776 31.7119 31.0014 31.7129 29.0665V28.2954C33.1826 27.5328 34.438 26.2476 35.3215 24.6013C36.2049 22.955 36.677 21.0211 36.6785 19.0425ZM12.4716 36.0062C10.99 36.0062 9.56914 35.275 8.52152 33.9736C7.47391 32.6721 6.88536 30.907 6.88536 29.0665V28.7947C7.49547 28.9746 8.12036 29.0658 8.74743 29.0665H9.98881C10.1534 29.0665 10.3113 28.9852 10.4277 28.8406C10.5441 28.696 10.6095 28.4999 10.6095 28.2954C10.6095 28.0909 10.5441 27.8948 10.4277 27.7502C10.3113 27.6056 10.1534 27.5243 9.98881 27.5243H8.74743C7.13551 27.5266 5.57492 26.8203 4.34192 25.5305C3.10892 24.2406 2.28303 22.4505 2.01044 20.4768C1.73785 18.5032 2.03615 16.4734 2.85253 14.7467C3.66891 13.0201 4.95072 11.7079 6.47105 11.0426C6.59213 10.9895 6.697 10.8912 6.7712 10.761C6.8454 10.6309 6.88529 10.4753 6.88536 10.3158V9.01849C6.88536 7.17797 7.47391 5.41284 8.52152 4.11139C9.56914 2.80995 10.99 2.07881 12.4716 2.07881C13.9531 2.07881 15.374 2.80995 16.4216 4.11139C17.4692 5.41284 18.0578 7.17797 18.0578 9.01849V24.1991C17.4286 23.0837 16.5926 22.1729 15.6202 21.5438C14.6479 20.9147 13.5679 20.5857 12.4716 20.5846C12.307 20.5846 12.1491 20.6659 12.0327 20.8105C11.9163 20.9551 11.8509 21.1512 11.8509 21.3557C11.8509 21.5602 11.9163 21.7563 12.0327 21.9009C12.1491 22.0455 12.307 22.1268 12.4716 22.1268C13.9531 22.1268 15.374 22.8579 16.4216 24.1594C17.4692 25.4608 18.0578 27.226 18.0578 29.0665C18.0578 30.907 17.4692 32.6721 16.4216 33.9736C15.374 35.275 13.9531 36.0062 12.4716 36.0062ZM28.6095 27.5243H27.3681C27.2035 27.5243 27.0456 27.6056 26.9292 27.7502C26.8128 27.8948 26.7474 28.0909 26.7474 28.2954C26.7474 28.4999 26.8128 28.696 26.9292 28.8406C27.0456 28.9852 27.2035 29.0665 27.3681 29.0665H28.6095C29.2366 29.0658 29.8615 28.9746 30.4716 28.7947V29.0665C30.4716 30.439 30.1439 31.7807 29.5301 32.922C28.9163 34.0632 28.0439 34.9527 27.0231 35.4779C26.0024 36.0032 24.8792 36.1406 23.7955 35.8728C22.7119 35.605 21.7166 34.9441 20.9353 33.9736C20.1541 33.003 19.622 31.7665 19.4065 30.4203C19.1909 29.0742 19.3016 27.6788 19.7244 26.4108C20.1472 25.1427 20.8632 24.0589 21.7818 23.2963C22.7005 22.5338 23.7805 22.1268 24.8854 22.1268C25.05 22.1268 25.2079 22.0455 25.3243 21.9009C25.4407 21.7563 25.5061 21.5602 25.5061 21.3557C25.5061 21.1512 25.4407 20.9551 25.3243 20.8105C25.2079 20.6659 25.05 20.5846 24.8854 20.5846C23.789 20.5857 22.7091 20.9147 21.7367 21.5438C20.7644 22.1729 19.9283 23.0837 19.2992 24.1991V9.01849C19.2992 7.17797 19.8877 5.41284 20.9353 4.11139C21.9829 2.80995 23.4038 2.07881 24.8854 2.07881C26.3669 2.07881 27.7878 2.80995 28.8354 4.11139C29.883 5.41284 30.4716 7.17797 30.4716 9.01849V10.3158C30.4716 10.4753 30.5115 10.6309 30.5857 10.761C30.6599 10.8912 30.7648 10.9895 30.8859 11.0426C32.4062 11.7079 33.688 13.0201 34.5044 14.7467C35.3208 16.4734 35.6191 18.5032 35.3465 20.4768C35.0739 22.4505 34.248 24.2406 33.015 25.5305C31.782 26.8203 30.2214 27.5266 28.6095 27.5243ZM30.4716 16.7293C30.4716 16.9338 30.4062 17.1299 30.2898 17.2745C30.1734 17.4191 30.0155 17.5003 29.8509 17.5003H29.2302C27.9133 17.5003 26.6503 16.8504 25.719 15.6936C24.7878 14.5367 24.2647 12.9677 24.2647 11.3317V10.5606C24.2647 10.3561 24.3301 10.16 24.4465 10.0154C24.5629 9.8708 24.7207 9.78957 24.8854 9.78957C25.05 9.78957 25.2079 9.8708 25.3243 10.0154C25.4407 10.16 25.5061 10.3561 25.5061 10.5606V11.3317C25.5061 12.5587 25.8984 13.7355 26.5968 14.6031C27.2952 15.4707 28.2425 15.9582 29.2302 15.9582H29.8509C30.0155 15.9582 30.1734 16.0394 30.2898 16.184C30.4062 16.3286 30.4716 16.5248 30.4716 16.7293ZM13.0923 11.3317C13.0923 12.9677 12.5691 14.5367 11.6379 15.6936C10.7067 16.8504 9.44368 17.5003 8.12674 17.5003H7.50605C7.34144 17.5003 7.18356 17.4191 7.06716 17.2745C6.95076 17.1299 6.88536 16.9338 6.88536 16.7293C6.88536 16.5248 6.95076 16.3286 7.06716 16.184C7.18356 16.0394 7.34144 15.9582 7.50605 15.9582H8.12674C9.11444 15.9582 10.0617 15.4707 10.7601 14.6031C11.4585 13.7355 11.8509 12.5587 11.8509 11.3317V10.5606C11.8509 10.3561 11.9163 10.16 12.0327 10.0154C12.1491 9.8708 12.307 9.78957 12.4716 9.78957C12.6362 9.78957 12.7941 9.8708 12.9105 10.0154C13.0269 10.16 13.0923 10.3561 13.0923 10.5606V11.3317Z" fill="white"/>
</svg>
