<svg width="37" height="38" viewBox="0 0 37 38" fill="none" xmlns="http://www.w3.org/2000/svg">
<path d="M36.6785 36.6615C36.6785 36.8952 36.6026 37.1192 36.4676 37.2845C36.3326 37.4497 36.1494 37.5425 35.9585 37.5425H1.39847C1.20751 37.5425 1.02438 37.4497 0.88935 37.2845C0.754324 37.1192 0.678467 36.8952 0.678467 36.6615V1.42343C0.678467 1.18979 0.754324 0.965716 0.88935 0.800506C1.02438 0.635295 1.20751 0.54248 1.39847 0.54248C1.58942 0.54248 1.77256 0.635295 1.90758 0.800506C2.04261 0.965716 2.11847 1.18979 2.11847 1.42343V27.4864L12.4091 14.8954C12.4759 14.8135 12.5553 14.7485 12.6427 14.7042C12.7302 14.6598 12.8238 14.637 12.9185 14.637C13.0131 14.637 13.1068 14.6598 13.1942 14.7042C13.2816 14.7485 13.361 14.8135 13.4279 14.8954L18.6785 21.3197L29.8997 7.5901H24.4385C24.2475 7.5901 24.0644 7.49729 23.9293 7.33208C23.7943 7.16686 23.7185 6.94279 23.7185 6.70915C23.7185 6.4755 23.7943 6.25143 23.9293 6.08622C24.0644 5.92101 24.2475 5.82819 24.4385 5.82819H31.6385C31.8294 5.82819 32.0126 5.92101 32.1476 6.08622C32.2826 6.25143 32.3585 6.4755 32.3585 6.70915V15.5187C32.3585 15.7523 32.2826 15.9764 32.1476 16.1416C32.0126 16.3068 31.8294 16.3996 31.6385 16.3996C31.4475 16.3996 31.2644 16.3068 31.1294 16.1416C30.9943 15.9764 30.9185 15.7523 30.9185 15.5187V8.83665L19.1879 23.1896C19.121 23.2715 19.0416 23.3365 18.9542 23.3808C18.8668 23.4251 18.7731 23.4479 18.6785 23.4479C18.5838 23.4479 18.4902 23.4251 18.4028 23.3808C18.3153 23.3365 18.2359 23.2715 18.1691 23.1896L12.9185 16.7652L2.11847 29.9795V35.7806H35.9585C36.1494 35.7806 36.3326 35.8734 36.4676 36.0386C36.6026 36.2038 36.6785 36.4279 36.6785 36.6615Z" fill="white"/>
</svg>
