<?xml version="1.0" encoding="utf-8"?>
<!-- Generator: Adobe Illustrator 16.0.0, SVG Export Plug-In . SVG Version: 6.00 Build 0)  -->
<!DOCTYPE svg PUBLIC "-//W3C//DTD SVG 1.1//EN" "http://www.w3.org/Graphics/SVG/1.1/DTD/svg11.dtd">
<svg version="1.1" id="Vrstva_1" xmlns="http://www.w3.org/2000/svg" xmlns:xlink="http://www.w3.org/1999/xlink" x="0px" y="0px"
	 width="34.02px" height="34.02px" viewBox="0 0 34.02 34.02" enable-background="new 0 0 34.02 34.02" xml:space="preserve">
<g>
	<g>
		<path d="M9.07,11.999v-2.39c-0.745-0.213-1.292-0.535-1.64-0.967C7.083,8.211,6.909,7.687,6.909,7.071
			c0-0.623,0.197-1.146,0.59-1.57C7.893,5.077,8.417,4.833,9.07,4.767V4.203h0.827v0.564c0.604,0.072,1.085,0.279,1.442,0.619
			c0.357,0.341,0.586,0.796,0.685,1.366L10.582,6.94c-0.088-0.448-0.315-0.752-0.685-0.912v2.229
			c0.912,0.247,1.534,0.567,1.865,0.961c0.33,0.394,0.496,0.898,0.496,1.515c0,0.688-0.209,1.268-0.625,1.739
			c-0.416,0.471-0.995,0.76-1.736,0.866v1.066H9.07v-1.037c-0.657-0.08-1.191-0.326-1.603-0.736c-0.41-0.41-0.673-0.99-0.787-1.739
			l1.488-0.159c0.062,0.304,0.176,0.566,0.343,0.787C8.679,11.74,8.865,11.9,9.07,11.999z M9.07,6.01
			C8.847,6.086,8.667,6.216,8.534,6.399C8.401,6.581,8.335,6.783,8.335,7.002c0,0.202,0.061,0.389,0.183,0.563
			C8.639,7.738,8.823,7.877,9.07,7.984V6.01z M9.897,12.079c0.285-0.054,0.517-0.186,0.695-0.396s0.269-0.459,0.269-0.744
			c0-0.255-0.075-0.475-0.226-0.659s-0.396-0.325-0.738-0.425V12.079z"/>
	</g>
	<g>
		<path d="M26.781,11.611l0.616,1.357c-0.217,0.117-0.467,0.214-0.75,0.288s-0.559,0.111-0.824,0.111
			c-0.342,0-0.799-0.081-1.368-0.243c-0.57-0.161-0.993-0.242-1.267-0.242c-0.464,0-0.938,0.165-1.42,0.496l-0.61-1.38
			c0.43-0.309,0.739-0.636,0.927-0.983c0.188-0.349,0.282-0.68,0.282-0.995c0-0.104-0.007-0.211-0.022-0.325h-1.187V8.434h0.896
			c-0.156-0.448-0.233-0.902-0.233-1.363c0-0.414,0.112-0.81,0.339-1.186c0.227-0.377,0.547-0.662,0.961-0.858
			c0.414-0.195,0.867-0.294,1.357-0.294c0.749,0,1.346,0.189,1.791,0.567c0.444,0.379,0.716,0.921,0.815,1.628l-1.546,0.229
			c-0.072-0.406-0.203-0.699-0.394-0.878S24.717,6.01,24.432,6.01c-0.304,0-0.557,0.103-0.759,0.306
			c-0.201,0.203-0.302,0.459-0.302,0.767c0,0.16,0.027,0.371,0.083,0.633c0.055,0.263,0.122,0.502,0.202,0.719h1.779v1.261h-1.517
			c0.011,0.083,0.017,0.167,0.017,0.251c0,0.3-0.057,0.578-0.171,0.832c-0.114,0.255-0.348,0.59-0.701,1.004
			c0.209-0.106,0.471-0.16,0.787-0.16c0.133,0,0.252,0.008,0.359,0.023c0.053,0.008,0.209,0.044,0.467,0.108
			c0.46,0.118,0.773,0.177,0.941,0.177C25.915,11.93,26.303,11.824,26.781,11.611z"/>
	</g>
	<g>
		<path d="M12.412,20.59l-0.336,1.58c-0.323-0.322-0.795-0.484-1.415-0.484c-0.619,0-1.121,0.223-1.505,0.666
			c-0.217,0.252-0.371,0.564-0.462,0.941h3.137l-0.183,0.885H8.58c-0.004,0.088-0.006,0.199-0.006,0.336
			c0,0.133,0.004,0.271,0.012,0.416h2.902l-0.183,0.885h-2.6c0.095,0.406,0.241,0.727,0.438,0.957
			c0.38,0.449,0.874,0.674,1.482,0.674c0.73,0,1.312-0.225,1.745-0.674v1.746c-0.494,0.246-1.07,0.369-1.728,0.369
			c-1.11,0-2.022-0.379-2.737-1.141c-0.486-0.516-0.808-1.16-0.964-1.932H6.1l0.183-0.885h0.559
			c-0.004-0.092-0.006-0.188-0.006-0.291c0-0.174,0.004-0.328,0.012-0.461H6.1l0.183-0.885H6.96c0.16-0.756,0.478-1.389,0.953-1.898
			c0.719-0.768,1.663-1.152,2.834-1.152C11.386,20.242,11.94,20.357,12.412,20.59z"/>
	</g>
	<g>
		<path d="M23.491,27.188h-2.116v-1.26h2.116v-0.684h-2.116v-1.262h1.488l-1.773-3.598h1.757l1.141,2.43
			c0.145,0.305,0.247,0.572,0.308,0.805c0.072-0.252,0.175-0.52,0.308-0.805l1.164-2.43h1.756l-1.796,3.598h1.511v1.262h-2.144
			v0.684h2.144v1.26h-2.144v1.557h-1.603V27.188z"/>
	</g>
	<rect x="16.408" y="2.26" width="1.2" height="29.496"/>
	<rect x="2.301" y="16.408" width="29.415" height="1.2"/>
</g>
</svg>
