<?xml version="1.0" encoding="utf-8"?>
<!-- Generator: Adobe Illustrator 16.0.0, SVG Export Plug-In . SVG Version: 6.00 Build 0)  -->
<!DOCTYPE svg PUBLIC "-//W3C//DTD SVG 1.1//EN" "http://www.w3.org/Graphics/SVG/1.1/DTD/svg11.dtd">
<svg version="1.1" id="Vrstva_1" xmlns="http://www.w3.org/2000/svg" xmlns:xlink="http://www.w3.org/1999/xlink" x="0px" y="0px"
	 width="34.02px" height="34.02px" viewBox="0 0 34.02 34.02" enable-background="new 0 0 34.02 34.02" xml:space="preserve">
<g>
	<rect x="10.228" y="30.301" width="13.562" height="1.199"/>
	<path d="M17.009,23.287c-2.859,0-5.185-2.326-5.185-5.186V7.7c0-2.859,2.325-5.185,5.185-5.185c2.857,0,5.183,2.325,5.183,5.185
		v10.402C22.192,20.961,19.866,23.287,17.009,23.287z M17.009,3.715c-2.197,0-3.984,1.787-3.984,3.984v10.402
		c0,2.197,1.787,3.984,3.984,3.984c2.196,0,3.983-1.787,3.983-3.984V7.7C20.992,5.502,19.205,3.715,17.009,3.715z"/>
	<path d="M17.009,26.488c-4.538,0-8.229-3.098-8.229-6.906h1.2c0,3.146,3.152,5.707,7.029,5.707c3.875,0,7.029-2.561,7.029-5.707
		h1.199C25.237,23.391,21.545,26.488,17.009,26.488z"/>
	<rect x="16.408" y="25.889" width="1.2" height="5.012"/>
</g>
</svg>
