<?xml version="1.0" encoding="utf-8"?>
<!-- Generator: Adobe Illustrator 16.0.0, SVG Export Plug-In . SVG Version: 6.00 Build 0)  -->
<!DOCTYPE svg PUBLIC "-//W3C//DTD SVG 1.1//EN" "http://www.w3.org/Graphics/SVG/1.1/DTD/svg11.dtd">
<svg version="1.1" id="Vrstva_1" xmlns="http://www.w3.org/2000/svg" xmlns:xlink="http://www.w3.org/1999/xlink" x="0px" y="0px"
	 width="34.02px" height="34.02px" viewBox="0 0 34.02 34.02" enable-background="new 0 0 34.02 34.02" xml:space="preserve">
<g>
	<path d="M31.515,27.968L21.403,17.857c0.907-1.521,1.438-3.291,1.438-5.186c0-5.607-4.563-10.17-10.17-10.17
		c-5.607,0-10.17,4.563-10.17,10.17s4.563,10.17,10.17,10.17c1.896,0,3.665-0.53,5.186-1.438l10.111,10.111L31.515,27.968z
		 M3.701,12.671c0-4.946,4.023-8.97,8.97-8.97c4.946,0,8.969,4.023,8.969,8.97s-4.023,8.97-8.969,8.97
		C7.724,21.641,3.701,17.617,3.701,12.671z M20.717,18.867l9.101,9.101l-1.85,1.85l-9.101-9.101
		C19.56,20.182,20.181,19.561,20.717,18.867z"/>
	<rect x="8.962" y="10.092" width="1.2" height="6.524"/>
	<rect x="12.071" y="12.927" width="1.199" height="3.689"/>
	<rect x="15.178" y="8.271" width="1.2" height="8.346"/>
</g>
</svg>
