<?xml version="1.0" encoding="utf-8"?>
<!-- Generator: Adobe Illustrator 16.0.0, SVG Export Plug-In . SVG Version: 6.00 Build 0)  -->
<!DOCTYPE svg PUBLIC "-//W3C//DTD SVG 1.1//EN" "http://www.w3.org/Graphics/SVG/1.1/DTD/svg11.dtd">
<svg version="1.1" id="Vrstva_1" xmlns="http://www.w3.org/2000/svg" xmlns:xlink="http://www.w3.org/1999/xlink" x="0px" y="0px"
	 width="34.02px" height="34.02px" viewBox="0 0 34.02 34.02" enable-background="new 0 0 34.02 34.02" xml:space="preserve">
<g>
	<path d="M22.533,4.354V2.517H11.486v1.837H6.142v27.148h21.732V4.354H22.533z M12.685,3.717h8.647v2.501h-8.647V3.717z
		 M26.675,30.301H7.342V5.554h4.144v1.864h11.047V5.554h4.143V30.301z"/>
	<rect x="9.819" y="11.59" width="8.236" height="1.199"/>
	<polygon points="21.693,12.815 20.556,11.68 19.708,12.528 21.693,14.512 25.066,11.139 24.218,10.291 	"/>
	<rect x="9.819" y="17.807" width="8.236" height="1.199"/>
	<polygon points="21.693,19.031 20.556,17.895 19.708,18.744 21.693,20.729 25.066,17.356 24.218,16.508 	"/>
	<rect x="9.819" y="24.211" width="8.236" height="1.199"/>
	<polygon points="21.693,25.436 20.556,24.299 19.708,25.148 21.693,27.133 25.066,23.76 24.218,22.912 	"/>
</g>
</svg>
