<?xml version="1.0" encoding="utf-8"?>
<!-- Generator: Adobe Illustrator 16.0.0, SVG Export Plug-In . SVG Version: 6.00 Build 0)  -->
<!DOCTYPE svg PUBLIC "-//W3C//DTD SVG 1.1//EN" "http://www.w3.org/Graphics/SVG/1.1/DTD/svg11.dtd">
<svg version="1.1" id="Vrstva_1" xmlns="http://www.w3.org/2000/svg" xmlns:xlink="http://www.w3.org/1999/xlink" x="0px" y="0px"
	 width="34.02px" height="34.02px" viewBox="0 0 34.02 34.02" enable-background="new 0 0 34.02 34.02" xml:space="preserve">
<g>
	<g>
		<path d="M32.02,19.846c-0.033-8.231-6.758-14.928-14.99-14.928c-8.23,0-14.955,6.696-14.99,14.928L0.84,19.841
			C0.877,10.95,8.139,3.718,17.029,3.718s16.154,7.232,16.191,16.123L32.02,19.846z"/>
		<path d="M29.029,19.846C29.002,13.3,23.654,7.974,17.107,7.974S5.213,13.3,5.186,19.846l-1.199-0.005
			C4.016,12.636,9.902,6.773,17.107,6.773s13.092,5.862,13.121,13.067L29.029,19.846z"/>
		<path d="M8.477,19.846l-1.201-0.005c0.023-5.414,4.447-9.819,9.861-9.819s9.838,4.405,9.859,9.819l-1.199,0.005
			c-0.02-4.755-3.904-8.624-8.66-8.624S8.496,15.091,8.477,19.846z"/>
	</g>
	<path d="M17.334,25.345l-4.828-4.829c-1.396-1.395-1.396-3.666,0-5.063c0.676-0.676,1.574-1.049,2.531-1.049
		c0.85,0,1.654,0.294,2.297,0.834c0.643-0.54,1.447-0.834,2.297-0.834c0.957,0,1.855,0.373,2.531,1.049
		c1.396,1.396,1.396,3.668,0,5.063L17.334,25.345z M15.037,15.604c-0.635,0-1.232,0.248-1.684,0.697
		c-0.928,0.928-0.928,2.438,0,3.366l3.98,3.979l3.98-3.979c0.928-0.928,0.928-2.438,0-3.366c-0.449-0.449-1.047-0.697-1.684-0.697
		c-0.635,0-1.232,0.248-1.684,0.697l-0.613,0.613l-0.613-0.613C16.271,15.853,15.674,15.604,15.037,15.604z"/>
</g>
</svg>
