<?xml version="1.0" encoding="utf-8"?>
<!-- Generator: Adobe Illustrator 16.0.0, SVG Export Plug-In . SVG Version: 6.00 Build 0)  -->
<!DOCTYPE svg PUBLIC "-//W3C//DTD SVG 1.1//EN" "http://www.w3.org/Graphics/SVG/1.1/DTD/svg11.dtd">
<svg version="1.1" id="Vrstva_1" xmlns="http://www.w3.org/2000/svg" xmlns:xlink="http://www.w3.org/1999/xlink" x="0px" y="0px"
	 width="56.693px" height="34.02px" viewBox="0 0 56.693 34.02" enable-background="new 0 0 56.693 34.02" xml:space="preserve">
<g>
	<path fill="#19161A" d="M51.642,16.865L43.167,2.339l-5.269,3.073l0.828,1.419c-0.529,0.197-1.17,0.379-1.555,0.337
		c-0.328-0.038-0.775-0.159-1.294-0.3c-0.8-0.217-1.796-0.486-2.953-0.618c-1.677-0.19-2.028-0.171-3.501-0.089l-0.787,0.043
		c-1.773,0.091-2.955,0.344-3.523,0.466c-0.114,0.024-0.195,0.042-0.246,0.049c-0.926,0.102-1.713,0.67-2.351,1.664
		c-0.267-0.043-0.602-0.087-1.034-0.123C20.16,8.154,18.58,7.365,18.41,7.259l-6.399,11.156l1.303,1.402l-0.915,1.308
		c-0.725,1.037-0.365,2.545,0.802,3.361c0.475,0.332,1.041,0.516,1.593,0.516c0.016,0,0.031-0.005,0.047-0.005
		c-0.05,0.836,0.359,1.723,1.161,2.283c0.475,0.333,1.041,0.516,1.594,0.516c0.153,0,0.299-0.022,0.443-0.049
		c0.114,0.663,0.5,1.309,1.132,1.751c0.475,0.332,1.041,0.516,1.594,0.516c0.35,0,0.677-0.078,0.971-0.21
		c0.183,0.547,0.542,1.036,1.042,1.386c0.475,0.333,1.041,0.516,1.594,0.516c0.762,0,1.432-0.333,1.838-0.912l0.5-0.714
		c0.459,0.216,1.607,0.726,2.688,0.941c1.386,0.277,3.263,0.32,4.244-0.917c0,0,0.228-0.434-0.063-0.547
		c-0.292-0.114-4.551-2.069-4.551-2.069s-0.292-0.249-0.128-0.604c0.163-0.355,0.668-0.163,1.052,0s4.679,2.24,4.679,2.24
		s0.647,0.12,1.01-0.071c0.362-0.192,1.238-0.448,1.48-1.771c0,0,0.05-0.313-0.228-0.441c-0.278-0.128-5.803-3.179-5.803-3.179
		s-0.319-0.192-0.1-0.562c0.221-0.37,0.356-0.257,1.181,0.163c0.825,0.419,5.525,3.028,5.525,3.028s0.741,0.197,1.157-0.021
		s1.115-0.357,1.296-1.786c0,0,0.1-0.295-0.33-0.562c-0.431-0.267-6.61-4.114-6.61-4.114s-0.263-0.234-0.028-0.59
		s0.647-0.05,0.668-0.05c0.021,0,7.054,4.373,7.054,4.373s1.209,0.483,1.944-0.562c0.683-0.969,0.364-2.012-0.068-2.457
		c0.94-0.572,2.025-1.638,2.619-2.262l0.978,1.676L51.642,16.865z M42.699,4.116l7.165,12.28l-3.022,1.763l-7.165-12.28
		L42.699,4.116z M13.946,23.422c-0.58-0.406-0.796-1.102-0.482-1.551l1.015-1.45c0.159-0.228,0.441-0.358,0.773-0.358
		c0.289,0,0.59,0.1,0.848,0.28c0.58,0.406,0.796,1.102,0.481,1.551l-1.015,1.449c-0.159,0.229-0.441,0.359-0.773,0.359
		C14.505,23.702,14.204,23.603,13.946,23.422z M16.747,26.216c-0.58-0.406-0.796-1.102-0.481-1.551l2.678-3.826
		c0.159-0.229,0.441-0.358,0.773-0.358c0.289,0,0.59,0.1,0.849,0.28c0.57,0.399,0.791,1.109,0.482,1.55l-2.678,3.826
		C18.071,26.564,17.301,26.604,16.747,26.216z M20.764,28.714c-0.289,0-0.59-0.1-0.849-0.28c-0.579-0.406-0.795-1.1-0.482-1.55
		c0-0.001,0-0.001,0-0.001l2.287-3.268c0.159-0.228,0.441-0.358,0.773-0.358c0.289,0,0.59,0.1,0.848,0.28
		c0.58,0.406,0.796,1.103,0.482,1.552l-2.286,3.267C21.378,28.583,21.096,28.714,20.764,28.714z M25.144,30.047
		c-0.299,0.425-1.067,0.466-1.622,0.078c-0.297-0.208-0.505-0.496-0.588-0.811c-0.072-0.276-0.034-0.539,0.108-0.742l1.355-1.937
		c0.159-0.229,0.441-0.358,0.772-0.358c0.289,0,0.59,0.1,0.849,0.28c0.58,0.406,0.795,1.102,0.481,1.551L25.144,30.047z
		 M41.872,19.579c-0.235-0.151-0.44-0.287-0.654-0.5c-0.425-0.426-4.4-3.324-6.774-4.966c-2.598-1.799-5.562-3.26-5.687-3.321
		l-0.289-0.142l-0.288,0.145c-0.93,0.465-1.936,0.5-1.945,0.5l-0.316,0.01l-0.188,0.252c-1.706,2.292-2.981,2.766-4.739,2.838
		c-0.127,0.006-0.555,0.01-0.634-0.165c-0.13-0.285,0.141-1.003,0.366-1.242c0.501-0.531,1.951-2.379,2.814-3.807
		c0.651-1.079,1.268-1.147,1.478-1.17c0.066-0.007,0.19-0.032,0.369-0.07c0.536-0.114,1.649-0.353,3.319-0.439l0.792-0.043
		c1.453-0.082,1.714-0.096,3.282,0.083c1.059,0.12,2.002,0.375,2.76,0.581c0.569,0.154,1.06,0.287,1.484,0.336
		c0.773,0.088,1.791-0.258,2.369-0.49l5.329,9.133C44.28,17.665,42.542,19.197,41.872,19.579z"/>
	<path fill="#19161A" d="M13.09,1.953L5.052,16.724l5.357,2.916l8.039-14.771L13.09,1.953z M9.888,17.876l-3.073-1.672l6.795-12.488
		l3.073,1.672L9.888,17.876z"/>
</g>
</svg>
