<?xml version="1.0" encoding="utf-8"?>
<!-- Generator: Adobe Illustrator 16.0.0, SVG Export Plug-In . SVG Version: 6.00 Build 0)  -->
<!DOCTYPE svg PUBLIC "-//W3C//DTD SVG 1.1//EN" "http://www.w3.org/Graphics/SVG/1.1/DTD/svg11.dtd">
<svg version="1.1" id="Vrstva_1" xmlns="http://www.w3.org/2000/svg" xmlns:xlink="http://www.w3.org/1999/xlink" x="0px" y="0px"
	 width="34.016px" height="34.02px" viewBox="0 0 34.016 34.02" enable-background="new 0 0 34.016 34.02" xml:space="preserve">
<g>
	<rect x="12.999" y="25.692" width="8.019" height="1.2"/>
	<rect x="14.998" y="28.617" width="4.021" height="1.199"/>
	<path d="M31.263,14.071c-0.455-0.636-1.024-1.452-1.612-2.297c-1.015-1.457-2.064-2.963-2.726-3.827
		c-1.027-1.341-3.263-4.141-3.743-4.598l-0.104-0.1c-0.589-0.571-1.815-1.763-2.792-0.938c-0.942,0.795-0.411,1.844-0.094,2.47
		l0.054,0.108c0.199,0.398,0.652,1.127,1.024,1.706c-0.508-0.311-1.059-0.587-1.665-0.813l-0.063-0.02
		c-0.166-0.042-0.328-0.089-0.495-0.144c-0.604-0.196-1.272-0.296-1.989-0.296c-1.056,0-1.897,0.214-2.13,0.279l-0.02,0.006
		c-0.64,0.204-1.405,0.524-2.168,0.99c0.372-0.579,0.826-1.31,1.026-1.708l0.054-0.108c0.317-0.626,0.848-1.675-0.094-2.471
		c-0.975-0.822-2.202,0.368-2.792,0.939l-0.104,0.1c-0.48,0.458-2.716,3.257-3.743,4.598c-0.661,0.863-1.71,2.37-2.726,3.827
		c-0.588,0.845-1.157,1.661-1.611,2.297c-1.146,1.599-1.038,2.585-0.943,3.455c0.017,0.154,0.034,0.311,0.044,0.472
		c0.068,1.143,1.058,4.46,1.746,6.416c0.472,1.342,0.462,2.978,0.426,3.732H2.808v3.829h9.656v-3.829h-0.849
		c0.049-0.392,0.154-0.962,0.391-1.576c0.125-0.324,0.272-0.66,0.42-0.996c0.248-0.566,0.49-1.142,0.653-1.695h7.857
		c0.164,0.554,0.405,1.129,0.653,1.695c0.148,0.336,0.295,0.672,0.42,0.996c0.237,0.614,0.342,1.185,0.391,1.576h-0.849v3.829h9.656
		v-3.829h-1.219c-0.037-0.754-0.046-2.387,0.427-3.732c0.688-1.956,1.677-5.273,1.746-6.416c0.01-0.161,0.027-0.317,0.044-0.472
		C32.301,16.656,32.408,15.67,31.263,14.071z M11.463,30.976H3.808v-1.829h7.656V30.976z M11.51,25.172
		c-0.154,0.351-0.307,0.7-0.437,1.039c-0.297,0.771-0.417,1.479-0.466,1.936H5.028c0.039-0.849,0.038-2.578-0.485-4.064
		c-0.752-2.14-1.636-5.222-1.691-6.145c-0.011-0.178-0.029-0.35-0.048-0.52c-0.09-0.825-0.161-1.477,0.762-2.765
		c0.457-0.639,1.028-1.459,1.619-2.307c1.008-1.448,2.051-2.945,2.699-3.79c1.084-1.416,3.233-4.096,3.639-4.482l0.11-0.106
		c0.963-0.934,1.322-1,1.451-0.893c0.289,0.244,0.215,0.528-0.153,1.255l-0.057,0.112c-0.305,0.61-1.364,2.231-1.479,2.384
		L9.566,9.274c-0.389,0.756-0.589,1.156-0.696,1.378c-0.896,0.168-2.329,1.027-2.329,3.392c0,2.739,0.063,6.669,0.063,6.669l1-0.016
		c0-0.001-0.063-3.921-0.063-6.653c0-2.019,1.231-2.366,1.545-2.421c0.403,0.083,0.688,0.262,0.869,0.547
		c0.374,0.587,0.232,1.532,0.134,1.904c-0.005,0.035-0.133,0.884-0.133,2.452c0,1.461,0.813,3.105,1.495,4.228l0.144,0.231
		c0.331,0.527,0.674,1.072,0.674,1.821C12.269,23.44,11.883,24.32,11.51,25.172z M13.896,22.679
		c-0.137-1.307-0.674-4.006-2.217-5.548c-0.307-0.307-0.532-0.651-0.719-1c0.018-1.186,0.109-1.848,0.105-1.848
		c0.025-0.09,0.418-1.568-0.263-2.645c-0.08-0.125-0.172-0.238-0.272-0.341c0.734-2.68,2.876-3.946,4.734-4.54
		c0.16-0.045,0.889-0.232,1.795-0.232c0.591,0,1.135,0.08,1.618,0.236c0.182,0.06,0.357,0.111,0.539,0.157
		c1.666,0.628,3.559,1.903,4.25,4.403c-0.092,0.098-0.18,0.201-0.253,0.317c-0.688,1.087-0.28,2.583-0.275,2.587
		c0.001,0.008,0.098,0.671,0.118,1.886c-0.187,0.356-0.407,0.707-0.718,1.019c-1.544,1.543-2.08,4.241-2.217,5.549H13.896z
		 M30.208,30.976h-7.656v-1.829h7.656V30.976z M31.211,17.418c-0.019,0.17-0.037,0.342-0.048,0.52
		c-0.055,0.923-0.938,4.005-1.691,6.145c-0.522,1.486-0.524,3.216-0.485,4.064h-5.579c-0.049-0.456-0.168-1.164-0.466-1.936
		c-0.13-0.339-0.283-0.688-0.437-1.039c-0.373-0.852-0.759-1.731-0.759-2.366c0-0.749,0.343-1.294,0.674-1.821l0.144-0.231
		c0.682-1.122,1.495-2.767,1.495-4.228c0-1.568-0.128-2.417-0.146-2.51c-0.086-0.314-0.228-1.259,0.146-1.846
		c0.181-0.285,0.466-0.464,0.87-0.547c0.294,0.051,1.544,0.388,1.544,2.421c0,2.732-0.063,6.652-0.063,6.653l1,0.016
		c0,0,0.063-3.93,0.063-6.669c0-2.365-1.434-3.225-2.33-3.392c-0.111-0.229-0.325-0.649-0.74-1.449l-1.782-2.375
		c-0.116-0.155-1.175-1.776-1.48-2.386L21.085,4.33c-0.368-0.727-0.442-1.011-0.153-1.254c0.131-0.111,0.488-0.041,1.451,0.892
		l0.11,0.106c0.405,0.386,2.555,3.066,3.639,4.482c0.647,0.845,1.69,2.342,2.699,3.79c0.591,0.848,1.162,1.668,1.62,2.307
		C31.373,15.941,31.302,16.593,31.211,17.418z"/>
</g>
</svg>
