<?xml version="1.0" encoding="utf-8"?>
<!-- Generator: Adobe Illustrator 16.0.0, SVG Export Plug-In . SVG Version: 6.00 Build 0)  -->
<!DOCTYPE svg PUBLIC "-//W3C//DTD SVG 1.1//EN" "http://www.w3.org/Graphics/SVG/1.1/DTD/svg11.dtd">
<svg version="1.1" id="Vrstva_1" xmlns="http://www.w3.org/2000/svg" xmlns:xlink="http://www.w3.org/1999/xlink" x="0px" y="0px"
	 width="34.02px" height="34.02px" viewBox="0 0 34.02 34.02" enable-background="new 0 0 34.02 34.02" xml:space="preserve">
<path d="M11.894,31.791c-5.008,0-9.083-4.075-9.083-9.083c0-3.107,1.563-5.967,4.182-7.647l0.702,1.094
	c-2.244,1.44-3.584,3.891-3.584,6.554c0,4.291,3.491,7.782,7.783,7.782c3.158,0,5.981-1.885,7.191-4.803l1.201,0.498
	C18.874,29.591,15.579,31.791,11.894,31.791z"/>
<polygon points="27.583,28.242 23.657,28.242 19.648,19.118 9.793,19.118 9.793,8.58 11.093,8.58 11.093,17.817 20.497,17.817 
	24.506,26.941 27.583,26.941 "/>
<rect x="10.443" y="12.75" width="6.728" height="1.3"/>
<path d="M10.442,9.652c-2.048,0-3.714-1.666-3.714-3.714c0-2.048,1.666-3.713,3.714-3.713s3.714,1.666,3.714,3.713
	C14.157,7.986,12.491,9.652,10.442,9.652z M10.442,3.524c-1.332,0-2.415,1.083-2.415,2.414c0,1.332,1.083,2.415,2.415,2.415
	s2.415-1.083,2.415-2.415C12.857,4.607,11.774,3.524,10.442,3.524z"/>
<path d="M24.296,18.004l-5.787-5.786c-0.724-0.723-1.122-1.686-1.122-2.712s0.398-1.989,1.122-2.712c1.457-1.452,3.98-1.447,5.425,0
	l0.361,0.361l0.361-0.361c1.459-1.453,3.979-1.447,5.426,0c1.496,1.495,1.496,3.929,0,5.424L24.296,18.004z M21.222,6.97
	c-0.676,0-1.313,0.264-1.794,0.744c-0.478,0.477-0.741,1.113-0.741,1.792s0.263,1.315,0.741,1.792l4.868,4.867l4.868-4.867
	c0.988-0.989,0.988-2.597,0-3.586c-0.958-0.957-2.623-0.96-3.589,0.001l-1.278,1.278l-1.281-1.279
	C22.537,7.234,21.9,6.97,21.222,6.97z"/>
</svg>
