<?xml version="1.0" encoding="utf-8"?>
<!-- Generator: Adobe Illustrator 16.0.0, SVG Export Plug-In . SVG Version: 6.00 Build 0)  -->
<!DOCTYPE svg PUBLIC "-//W3C//DTD SVG 1.1//EN" "http://www.w3.org/Graphics/SVG/1.1/DTD/svg11.dtd">
<svg version="1.1" id="Vrstva_1" xmlns="http://www.w3.org/2000/svg" xmlns:xlink="http://www.w3.org/1999/xlink" x="0px" y="0px"
	 width="34.02px" height="34.02px" viewBox="0 0 34.02 34.02" enable-background="new 0 0 34.02 34.02" xml:space="preserve">
<g>
	<path d="M32.557,10.649C28.289,6.782,22.763,4.653,17,4.653c-5.757,0-11.276,2.124-15.542,5.981l-0.805-0.89
		C5.14,5.687,10.945,3.453,17,3.453c6.062,0,11.874,2.239,16.363,6.307L32.557,10.649z"/>
	<path d="M27.734,15.754c-2.959-2.631-6.771-4.08-10.734-4.08c-3.962,0-7.772,1.447-10.729,4.074l-0.797-0.896
		c3.178-2.823,7.271-4.378,11.526-4.378c4.257,0,8.352,1.557,11.531,4.383L27.734,15.754z"/>
	<path d="M22.833,20.988c-1.624-1.385-3.696-2.146-5.833-2.146c-2.137,0-4.208,0.762-5.831,2.145l-0.778-0.914
		c1.841-1.568,4.188-2.431,6.609-2.431c2.423,0,4.772,0.865,6.613,2.435L22.833,20.988z"/>
	<g>
		<rect x="12.744" y="26.527" transform="matrix(0.7071 0.7071 -0.7071 0.7071 24.1622 -4.0754)" width="8.513" height="1.199"/>
		<rect x="16.401" y="22.871" transform="matrix(0.7075 0.7067 -0.7067 0.7075 24.1429 -4.0798)" width="1.199" height="8.513"/>
	</g>
</g>
</svg>
