<svg width="41" height="38" viewBox="0 0 41 38" fill="none" xmlns="http://www.w3.org/2000/svg">
<path d="M40.3291 28.3012C39.0745 26.4506 37.2088 21.2931 37.2088 14.6069C37.2088 10.8768 35.4677 7.29945 32.3685 4.66185C29.2693 2.02426 25.0659 0.54248 20.683 0.54248C16.3 0.54248 12.0966 2.02426 8.99742 4.66185C5.89823 7.29945 4.15712 10.8768 4.15712 14.6069C4.15712 21.2931 2.28927 26.4506 1.03461 28.292C0.803176 28.6293 0.680419 29.0127 0.678729 29.4034C0.677039 29.7941 0.796476 30.1782 1.02498 30.517C1.25349 30.8558 1.58298 31.1374 1.9802 31.3332C2.37742 31.529 2.8283 31.6322 3.28734 31.6323H12.9049C13.122 33.2585 14.0348 34.7599 15.4694 35.8499C16.904 36.94 18.7598 37.5425 20.683 37.5425C22.6061 37.5425 24.4619 36.94 25.8965 35.8499C27.3311 34.7599 28.2439 33.2585 28.461 31.6323H38.0786C38.5358 31.6309 38.9846 31.5273 39.38 31.3318C39.7754 31.1363 40.1035 30.8559 40.3314 30.5185C40.5594 30.1812 40.6791 29.7988 40.6787 29.4096C40.6783 29.0205 40.5577 28.6382 40.3291 28.3012ZM20.683 36.0737C19.219 36.0735 17.8041 35.6245 16.6975 34.8088C15.5909 33.9931 14.8667 32.8654 14.6575 31.6323H26.7084C26.4992 32.8654 25.775 33.9931 24.6684 34.8088C23.5618 35.6245 22.1469 36.0735 20.683 36.0737ZM38.8287 29.7817C38.7544 29.8947 38.6458 29.9887 38.5142 30.0538C38.3826 30.1189 38.2329 30.1527 38.0807 30.1518H3.28734C3.13515 30.1527 2.98545 30.1189 2.85387 30.0538C2.7223 29.9887 2.61367 29.8947 2.53933 29.7817C2.46299 29.6691 2.4228 29.5415 2.4228 29.4116C2.4228 29.2816 2.46299 29.154 2.53933 29.0414C4.15712 26.6671 5.89668 21.1432 5.89668 14.6069C5.89668 11.2694 7.45452 8.06865 10.2275 5.7087C13.0004 3.34875 16.7614 2.02295 20.683 2.02295C24.6045 2.02295 28.3655 3.34875 31.1384 5.7087C33.9114 8.06865 35.4692 11.2694 35.4692 14.6069C35.4692 21.1413 37.2088 26.6671 38.8266 29.0414C38.9032 29.1538 38.9438 29.2814 38.9442 29.4113C38.9446 29.5412 38.9048 29.669 38.8287 29.7817Z" fill="white"/>
</svg>
