<svg width="34" height="20" viewBox="0 0 34 20" fill="none" xmlns="http://www.w3.org/2000/svg">
<path d="M1.09 1.23252C1.55882 0.763838 2.19459 0.500549 2.8575 0.500549C3.52041 0.500549 4.15618 0.763838 4.625 1.23252L17 13.6075L29.375 1.23252C29.8465 0.777121 30.478 0.525134 31.1335 0.53083C31.789 0.536526 32.416 0.799449 32.8795 1.26297C33.3431 1.72649 33.606 2.35352 33.6117 3.00901C33.6174 3.6645 33.3654 4.29601 32.91 4.76751L18.7675 18.91C18.2987 19.3787 17.6629 19.642 17 19.642C16.3371 19.642 15.7013 19.3787 15.2325 18.91L1.09 4.76751C0.621321 4.2987 0.358032 3.66293 0.358032 3.00002C0.358032 2.3371 0.621321 1.70134 1.09 1.23252Z" fill="white"/>
</svg>
