<svg width="24" height="34" viewBox="0 0 24 34" fill="none" xmlns="http://www.w3.org/2000/svg">
<path d="M23.6668 12.1667C23.6668 10.6346 23.3651 9.11749 22.7788 7.70203C22.1925 6.28656 21.3331 5.00044 20.2497 3.91709C19.1664 2.83374 17.8803 1.97438 16.4648 1.38807C15.0493 0.801767 13.5323 0.5 12.0002 0.5C10.4681 0.5 8.95099 0.801767 7.53552 1.38807C6.12006 1.97438 4.83393 2.83374 3.75058 3.91709C2.66723 5.00044 1.80787 6.28656 1.22157 7.70203C0.635263 9.11749 0.333496 10.6346 0.333496 12.1667C0.333496 14.4783 1.01516 16.6283 2.17516 18.4417H2.16183L12.0002 33.8333L21.8385 18.4417H21.8268C23.0283 16.5693 23.6669 14.3914 23.6668 12.1667ZM12.0002 17.1667C10.6741 17.1667 9.40231 16.6399 8.46463 15.7022C7.52695 14.7645 7.00016 13.4927 7.00016 12.1667C7.00016 10.8406 7.52695 9.56881 8.46463 8.63113C9.40231 7.69345 10.6741 7.16667 12.0002 7.16667C13.3262 7.16667 14.598 7.69345 15.5357 8.63113C16.4734 9.56881 17.0002 10.8406 17.0002 12.1667C17.0002 13.4927 16.4734 14.7645 15.5357 15.7022C14.598 16.6399 13.3262 17.1667 12.0002 17.1667Z" fill="black"/>
</svg>
