<svg width="40" height="41" viewBox="0 0 40 41" fill="none" xmlns="http://www.w3.org/2000/svg">
<path d="M36.8889 40.1665L22.8889 26.1665C21.7778 27.0554 20.5 27.7591 19.0556 28.2776C17.6111 28.7961 16.0741 29.0554 14.4444 29.0554C10.4074 29.0554 6.99111 27.6569 4.19556 24.8598C1.4 22.0628 0.00148148 18.6465 0 14.6109C0 10.5739 1.39852 7.15762 4.19556 4.36206C6.99259 1.5665 10.4089 0.167985 14.4444 0.166504C18.4815 0.166504 21.8985 1.56502 24.6956 4.36206C27.4926 7.1591 28.8904 10.5754 28.8889 14.6109C28.8889 16.2406 28.6296 17.7776 28.1111 19.2221C27.5926 20.6665 26.8889 21.9443 26 23.0554L40 37.0554L36.8889 40.1665ZM14.4444 24.611C17.2222 24.611 19.5837 23.6391 21.5289 21.6954C23.4741 19.7517 24.4459 17.3902 24.4444 14.6109C24.4444 11.8332 23.4726 9.47243 21.5289 7.52873C19.5852 5.58502 17.2237 4.61243 14.4444 4.61095C11.6667 4.61095 9.30593 5.58354 7.36222 7.52873C5.41852 9.47391 4.44593 11.8347 4.44444 14.6109C4.44444 17.3887 5.41704 19.7502 7.36222 21.6954C9.30741 23.6406 11.6681 24.6124 14.4444 24.611Z" fill="black"/>
</svg>
