<svg width="41" height="40" viewBox="0 0 41 40" fill="none" xmlns="http://www.w3.org/2000/svg">
<path d="M36.5158 26.7675C36.047 27.2362 35.4112 27.4995 34.7483 27.4995C34.0854 27.4995 33.4497 27.2362 32.9808 26.7675L20.6058 14.3925L8.23084 26.7675C7.75933 27.2229 7.12783 27.4749 6.47234 27.4692C5.81684 27.4635 5.18981 27.2006 4.72629 26.737C4.26277 26.2735 3.99985 25.6465 3.99416 24.991C3.98846 24.3355 4.24044 23.704 4.69584 23.2325L18.8383 9.08998C19.3072 8.62131 19.9429 8.35802 20.6058 8.35802C21.2687 8.35802 21.9045 8.62131 22.3733 9.08998L36.5158 23.2325C36.9845 23.7013 37.2478 24.3371 37.2478 25C37.2478 25.6629 36.9845 26.2987 36.5158 26.7675Z" fill="white"/>
</svg>
