<svg width="79" height="72" viewBox="0 0 79 72" fill="none" xmlns="http://www.w3.org/2000/svg">
<path d="M74.317 0.931641H51.0231C48.6157 0.932814 46.2552 1.63125 44.2006 2.95028C42.146 4.26931 40.4768 6.15795 39.3761 8.40891C38.2754 6.15795 36.6062 4.26931 34.5516 2.95028C32.497 1.63125 30.1365 0.932814 27.7291 0.931641H4.43524C3.27687 0.931641 2.16596 1.41544 1.34687 2.2766C0.527785 3.13776 0.067627 4.30575 0.067627 5.52362V54.5047C0.067627 55.7226 0.527785 56.8905 1.34687 57.7517C2.16596 58.6129 3.27687 59.0967 4.43524 59.0967H27.7291C30.432 59.0967 33.0241 60.2255 34.9353 62.2349C36.8465 64.2443 37.9202 66.9696 37.9202 69.8113C37.9202 70.2172 38.0736 70.6066 38.3466 70.8936C38.6197 71.1807 38.99 71.3419 39.3761 71.3419C39.7622 71.3419 40.1325 71.1807 40.4056 70.8936C40.6786 70.6066 40.832 70.2172 40.832 69.8113C40.832 66.9696 41.9057 64.2443 43.8169 62.2349C45.7281 60.2255 48.3202 59.0967 51.0231 59.0967H74.317C75.4753 59.0967 76.5862 58.6129 77.4053 57.7517C78.2244 56.8905 78.6846 55.7226 78.6846 54.5047V5.52362C78.6846 4.30575 78.2244 3.13776 77.4053 2.2766C76.5862 1.41544 75.4753 0.931641 74.317 0.931641ZM27.7291 56.0354H4.43524C4.04911 56.0354 3.67881 55.8741 3.40578 55.587C3.13275 55.3 2.97937 54.9106 2.97937 54.5047V5.52362C2.97937 5.11766 3.13275 4.72833 3.40578 4.44128C3.67881 4.15422 4.04911 3.99296 4.43524 3.99296H27.7291C30.432 3.99296 33.0241 5.12182 34.9353 7.1312C36.8465 9.14057 37.9202 11.8659 37.9202 14.7076V61.1631C36.694 59.5619 35.142 58.2702 33.3784 57.3828C31.6147 56.4954 29.6843 56.035 27.7291 56.0354ZM75.7728 54.5047C75.7728 54.9106 75.6195 55.3 75.3464 55.587C75.0734 55.8741 74.7031 56.0354 74.317 56.0354H51.0231C49.0676 56.0354 47.137 56.4965 45.3733 57.3845C43.6097 58.2726 42.0578 59.5651 40.832 61.1669V14.7076C40.832 11.8659 41.9057 9.14057 43.8169 7.1312C45.7281 5.12182 48.3202 3.99296 51.0231 3.99296H74.317C74.7031 3.99296 75.0734 4.15422 75.3464 4.44128C75.6195 4.72833 75.7728 5.11766 75.7728 5.52362V54.5047ZM67.0376 17.7689C67.0376 18.1748 66.8842 18.5642 66.6112 18.8512C66.3382 19.1383 65.9679 19.2995 65.5818 19.2995H51.0231C50.6369 19.2995 50.2666 19.1383 49.9936 18.8512C49.7206 18.5642 49.5672 18.1748 49.5672 17.7689C49.5672 17.3629 49.7206 16.9736 49.9936 16.6865C50.2666 16.3995 50.6369 16.2382 51.0231 16.2382H65.5818C65.9679 16.2382 66.3382 16.3995 66.6112 16.6865C66.8842 16.9736 67.0376 17.3629 67.0376 17.7689ZM67.0376 30.0142C67.0376 30.4201 66.8842 30.8094 66.6112 31.0965C66.3382 31.3835 65.9679 31.5448 65.5818 31.5448H51.0231C50.6369 31.5448 50.2666 31.3835 49.9936 31.0965C49.7206 30.8094 49.5672 30.4201 49.5672 30.0142C49.5672 29.6082 49.7206 29.2189 49.9936 28.9318C50.2666 28.6448 50.6369 28.4835 51.0231 28.4835H65.5818C65.9679 28.4835 66.3382 28.6448 66.6112 28.9318C66.8842 29.2189 67.0376 29.6082 67.0376 30.0142ZM67.0376 42.2594C67.0376 42.6654 66.8842 43.0547 66.6112 43.3418C66.3382 43.6288 65.9679 43.7901 65.5818 43.7901H51.0231C50.6369 43.7901 50.2666 43.6288 49.9936 43.3418C49.7206 43.0547 49.5672 42.6654 49.5672 42.2594C49.5672 41.8535 49.7206 41.4641 49.9936 41.1771C50.2666 40.89 50.6369 40.7288 51.0231 40.7288H65.5818C65.9679 40.7288 66.3382 40.89 66.6112 41.1771C66.8842 41.4641 67.0376 41.8535 67.0376 42.2594Z" fill="white"/>
</svg>
