<?xml version="1.0" encoding="utf-8"?>
<!-- Generator: Adobe Illustrator 16.0.0, SVG Export Plug-In . SVG Version: 6.00 Build 0)  -->
<!DOCTYPE svg PUBLIC "-//W3C//DTD SVG 1.1//EN" "http://www.w3.org/Graphics/SVG/1.1/DTD/svg11.dtd">
<svg version="1.1" id="Vrstva_1" xmlns="http://www.w3.org/2000/svg" xmlns:xlink="http://www.w3.org/1999/xlink" x="0px" y="0px"
	 width="34.02px" height="34.02px" viewBox="0 0 34.02 34.02" enable-background="new 0 0 34.02 34.02" xml:space="preserve">
<g>
	<path d="M27.965,9.158c0.567-0.53,0.927-1.278,0.927-2.113c0-1.6-1.302-2.901-2.901-2.901c-1.601,0-2.902,1.302-2.902,2.901
		c0,0.836,0.36,1.584,0.927,2.114c-1.771,0.767-3.016,2.53-3.016,4.58v1.622h9.983v-1.622C30.982,11.688,29.737,9.925,27.965,9.158z
		 M24.288,7.045c0-0.938,0.764-1.701,1.702-1.701s1.701,0.763,1.701,1.701s-0.763,1.702-1.701,1.702S24.288,7.983,24.288,7.045z
		 M29.782,14.161h-7.583v-0.423c0-2.091,1.7-3.792,3.791-3.792s3.792,1.701,3.792,3.792V14.161z"/>
	<polygon points="18.99,11.552 17.255,9.771 18.99,7.989 18.131,7.151 15.579,9.771 18.131,12.389 	"/>
	<polygon points="15.987,22.189 17.723,23.971 15.987,25.752 16.847,26.589 19.398,23.971 16.847,21.352 	"/>
	<path d="M10,23.098c0.567-0.53,0.926-1.278,0.926-2.113c0-1.601-1.301-2.901-2.9-2.901c-1.601,0-2.902,1.301-2.902,2.901
		c0,0.835,0.36,1.583,0.927,2.113c-1.772,0.767-3.017,2.529-3.017,4.58V29.3h9.983v-1.622C13.017,25.627,11.771,23.864,10,23.098z
		 M6.322,20.984c0-0.938,0.764-1.702,1.703-1.702c0.938,0,1.701,0.764,1.701,1.702s-0.764,1.702-1.701,1.702
		C7.086,22.687,6.322,21.923,6.322,20.984z M11.816,28.1H4.233v-0.422c0-2.091,1.701-3.792,3.792-3.792
		c2.09,0,3.791,1.701,3.791,3.792V28.1z"/>
	<path d="M29.113,25.385c-0.319-0.491-0.813-0.772-1.354-0.772c-0.294,0-0.589,0.083-0.875,0.245
		c-0.046,0.026-0.095,0.053-0.145,0.078c-0.487-0.716-0.771-1.462-0.866-2.27c0.077-0.022,0.154-0.044,0.232-0.064
		c0.829-0.221,1.326-0.99,1.182-1.83c-0.114-0.664-0.237-1.342-0.362-2.015c-0.144-0.768-0.784-1.304-1.559-1.304
		c-0.133,0-0.268,0.016-0.399,0.048c-0.136,0.032-0.267,0.07-0.381,0.104l-0.063,0.019c-1.088,0.313-2.184,1.346-2.174,2.714
		c0,0.023-0.002,0.054-0.003,0.085c-0.004,0.076-0.009,0.171-0.005,0.28c0.013,0.43,0.027,0.931,0.049,1.426l0.004,0.089
		c0.01,0.227,0.02,0.483,0.064,0.757c0.186,1.147,0.582,2.271,1.212,3.434c0.485,0.897,1.139,1.588,1.771,2.257
		c0.121,0.127,0.242,0.255,0.36,0.384c0.642,0.693,1.452,0.801,2.006,0.821l0.078,0.003l0.065-0.006l0.018-0.001
		c0.11-0.003,0.315-0.01,0.553-0.098c0.303-0.112,0.627-0.236,0.946-0.38c0.45-0.201,0.772-0.561,0.907-1.012
		c0.134-0.448,0.058-0.944-0.209-1.361C29.815,26.47,29.465,25.927,29.113,25.385z M28.977,28.293
		c-0.286,0.129-0.579,0.24-0.873,0.35c-0.077,0.028-0.168,0.02-0.252,0.027c-0.438-0.016-0.853-0.095-1.168-0.437
		c-0.702-0.76-1.461-1.479-1.958-2.397c-0.519-0.958-0.907-1.973-1.083-3.056c-0.037-0.231-0.043-0.469-0.053-0.703
		c-0.021-0.47-0.035-0.94-0.049-1.411c-0.003-0.112,0.009-0.226,0.009-0.338c-0.006-0.806,0.711-1.381,1.305-1.552
		c0.131-0.038,0.262-0.077,0.395-0.108c0.04-0.01,0.08-0.015,0.118-0.015c0.19,0,0.341,0.12,0.379,0.324
		c0.124,0.665,0.244,1.331,0.359,1.998c0.04,0.232-0.083,0.407-0.308,0.467c-0.281,0.074-0.56,0.16-0.843,0.222
		c-0.135,0.03-0.204,0.109-0.222,0.223c-0.037,0.241-0.092,0.487-0.071,0.726c0.101,1.165,0.52,2.217,1.201,3.163
		c0.178,0.246,0.411,0.442,0.73,0.491c0.021,0.003,0.042,0.005,0.064,0.005c0.039,0,0.08-0.006,0.113-0.021
		c0.238-0.11,0.479-0.219,0.707-0.35c0.102-0.058,0.195-0.088,0.281-0.088c0.133,0,0.248,0.072,0.347,0.225
		c0.351,0.541,0.7,1.082,1.048,1.625C29.314,27.911,29.247,28.172,28.977,28.293z"/>
	<path d="M10.682,13.423c-0.607,0.234-1.334,0.352-2.178,0.352c-0.875,0-1.653-0.14-2.333-0.421c-0.68-0.28-1.207-0.727-1.583-1.337
		c-0.376-0.611-0.564-1.289-0.564-2.034c0-0.767,0.169-1.503,0.506-2.211s0.839-1.257,1.504-1.647
		C6.699,5.733,7.51,5.539,8.467,5.539c1.127,0,2.004,0.292,2.633,0.876c0.629,0.585,0.942,1.312,0.942,2.18
		c0,0.484-0.11,0.952-0.333,1.403c-0.223,0.452-0.514,0.813-0.874,1.081c-0.269,0.205-0.487,0.307-0.657,0.307
		c-0.057,0-0.104-0.021-0.146-0.066c-0.04-0.044-0.061-0.109-0.061-0.198c0-0.07,0.024-0.226,0.074-0.466l0.8-3.798H9.447
		L9.314,7.445c-0.3-0.479-0.765-0.72-1.393-0.72c-0.883,0-1.606,0.416-2.172,1.25C5.284,8.66,5.051,9.418,5.051,10.247
		c0,0.671,0.193,1.209,0.58,1.613s0.873,0.606,1.459,0.606c0.544,0,1.024-0.201,1.441-0.604c0.049,0.198,0.147,0.349,0.296,0.45
		c0.148,0.103,0.369,0.154,0.662,0.154c1.088,0,1.979-0.459,2.675-1.377c0.555-0.728,0.832-1.542,0.832-2.442
		c0-0.755-0.184-1.452-0.549-2.089c-0.365-0.638-0.895-1.129-1.586-1.476c-0.692-0.346-1.483-0.519-2.373-0.519
		c-1.049,0-1.98,0.214-2.797,0.644C4.876,5.637,4.233,6.279,3.764,7.136C3.295,7.992,3.06,8.916,3.06,9.908
		c0,0.904,0.206,1.74,0.62,2.508c0.412,0.769,1.043,1.349,1.891,1.743c0.848,0.394,1.854,0.59,3.019,0.59
		c1.204,0,2.225-0.232,3.062-0.699c0.73-0.406,1.273-0.967,1.626-1.684h-1.128C11.777,12.835,11.288,13.188,10.682,13.423z
		 M8.819,10.072c-0.136,0.413-0.298,0.728-0.484,0.943c-0.131,0.151-0.263,0.263-0.397,0.333c-0.177,0.1-0.365,0.148-0.566,0.148
		c-0.269,0-0.494-0.105-0.676-0.317s-0.272-0.542-0.272-0.99c0-0.336,0.065-0.721,0.196-1.155c0.13-0.434,0.324-0.769,0.582-1.004
		C7.459,7.796,7.74,7.679,8.043,7.679c0.283,0,0.517,0.106,0.702,0.32s0.278,0.52,0.278,0.919C9.023,9.274,8.955,9.659,8.819,10.072
		z"/>
</g>
</svg>
